<svg height='300px' width='300px'  fill="#E3FCAD" xmlns="http://www.w3.org/2000/svg" xmlns:xlink="http://www.w3.org/1999/xlink" version="1.1" x="0px" y="0px" viewBox="0 0 100 100" style="enable-background:new 0 0 100 100;" xml:space="preserve"><g style="" display="none"><rect x="-814.624" y="-1007" style="" width="1293.624" height="1270.059" display="inline" fill="#E3FCAD" stroke="#E3FCAD" stroke-miterlimit="10"></rect></g><g><path style="" d="M39.725,37.281c-2.756,0-5.01,2.254-5.01,5.01v8.105c0,2.756,2.255,5.01,5.01,5.01   c2.756,0,5.01-2.255,5.01-5.01v-8.105C44.735,39.535,42.481,37.281,39.725,37.281z" fill="none"></path><path style="" d="M22.328,37.281c-2.756,0-5.01,2.254-5.01,5.01v8.105c0,2.756,2.254,5.01,5.01,5.01   c2.756,0,5.01-2.255,5.01-5.01v-8.105C27.338,39.535,25.084,37.281,22.328,37.281z" fill="none"></path><path d="M89.705,49.478H79.628c0-20.609-16.706-37.315-37.315-37.315c-20.354,0-36.902,16.297-37.307,36.554   c-0.419,20.937,19.225,39.12,40.166,39.12h2.634c18.462,0,43.207-14.452,47.073-32.061C95.593,52.529,93.029,49.478,89.705,49.478z    M27.338,50.396c0,2.756-2.254,5.01-5.01,5.01c-2.756,0-5.01-2.255-5.01-5.01v-8.105c0-2.756,2.254-5.01,5.01-5.01   c2.756,0,5.01,2.254,5.01,5.01V50.396z M44.735,50.396c0,2.756-2.254,5.01-5.01,5.01c-2.756,0-5.01-2.255-5.01-5.01v-8.105   c0-2.756,2.255-5.01,5.01-5.01c2.756,0,5.01,2.254,5.01,5.01V50.396z"></path></g></svg>