<?xml version="1.0" encoding="UTF-8" standalone="no"?>
<svg id="svg4178" xmlns:rdf="http://www.w3.org/1999/02/22-rdf-syntax-ns#" xmlns="http://www.w3.org/2000/svg" height="1016" viewBox="0 0 725 1016" width="725" version="1.1" xmlns:cc="http://creativecommons.org/ns#" xmlns:dc="http://purl.org/dc/elements/1.1/">
<path id="path4192" d="m270 1010c0-2.2412 9.0608-10.105 11.278-9.7882 6.4193 0.9171 0.4849 10.71-6.528 10.772-2.6125 0.023-4.75-0.4195-4.75-0.984zm16 0.5263c0-0.275 1.8-2.3 4-4.5s4-4.6138 4-5.364c0-1.927 7.6328-6.9909 9.4731-6.2847 2.4788 0.95122 1.7785 3.9495-2.4512 10.494l-3.9782 6.155h-5.5218c-3.037 0-5.5218-0.225-5.5218-0.5zm24-4.6606c6.242-5.7538 11.2-8.257 14.642-7.3931 2.4419 0.61289 3.2798 3.8659 1.3094 5.0837-0.7052 0.4359-0.62591 1.1573 0.24216 2.2033 1.1222 1.3521 0.9892 1.4595-1.0183 0.8223-1.673-0.5309-3.3866-0.02-6.2207 1.8558-3.0034 1.9875-5.1357 2.5781-9.1831 2.5432l-5.2714-0.045 5.5-5.0698zm21.713 4.54c-1.4773-1.4772-0.62523-4.3907 1.7367-5.9383 2.6277-1.7217 3.6204-4.2606 5.6332-14.408 1.6565-8.3512 7.6862-14.405 9.5389-9.5769 0.57773 1.5055-0.88684 13.327-2.1425 17.294-0.39173 1.2375-0.3058 2.25 0.19094 2.25 1.06 0.08 8.33-9.43 8.33-10.82 0-1.84 6.76-8.1 8.75-8.1 2.6902 0 4.9304 2.7453 3.6964 4.5298-8.0813 11.686-11.145 16.404-12.144 18.704-1.3832 3.1841-7.8472 4.1053-8.934 1.2732-0.42751-1.114-1.126-0.6698-2.7518 1.75-2.1552 3.2079-9.8066 5.2156-11.9 3.1225zm143.83-3.7281c-1.6192-1.1839-1.7762-2.344-1.2857-9.5 0.6496-9.4774 0.25142-9.7937-4.2812-3.4013-5.0335 7.0989-9.2947 8.4813-12.414 4.0275-2.794-3.989-2.1968-21.312 0.8024-23.277 4.1648-2.7289 8.5047 2.4806 6.9665 8.3626-0.95826 3.6644 1.7418 3.3206 5.237-0.66672 9.9856-11.392 14.347-8.5355 14.238 9.3254-0.0985 16.199-2.4802 20.089-9.2628 15.13zm-111.09-1.3429c-3.8257-3.8257 0.35524-17.471 4.8274-15.755 2.4474 0.93917 2.9358 3.6917 1.6151 9.1035-2.0763 8.5079-3.3112 9.7828-6.4425 6.6515zm12.296-0.5634c-3.3448-2.7277-3.8732-8.7537-1.3806-15.745 2.1009-5.8927 2.0405-9.4486-0.32805-19.323-5.97-24.82-5.5-47.63 0.98-47.63 2.9269 0 4.0509 3.2348 4.8906 14.075 0.4235 5.4674 1.0004 10.171 1.2819 10.453 0.91961 0.9196 1.7278-34.784 1.0079-44.527-0.76032-10.291 1.393-53.804 2.8526-57.643 2.0818-5.4754 4.1835-1.6125 3.2829 6.0338-0.99522 8.4496-0.93463 75.711 0.0753 83.609 0.3868 3.025 1.1926 7.4371 1.7906 9.8047 1.2836 5.0817 0.0601 7.3157-2.5676 4.6881-1.51-1.51-1.63-1.48-1.63 0.44 0 1.24-0.65 2.07-1.62 2.07-1.8672 0-1.6871 3.3739 1.0938 20.5 0.8931 5.5 1.5325 11.35 1.4208 13-0.11166 1.65 0.14668 6.5044 0.57409 10.788 1.1193 11.217-4.2481 15.549-11.718 9.4574zm31.25 1.5c-5.7341-1.9713-1.259-16.73 4.858-16.022 3.485 0.40364 4.052 5.102 1.273 10.549-2.3595 4.6251-4.0936 6.1729-6.131 5.4725zm29.29-0.9896c-1.8265-1.1997-1.8011-8.0028 0.0549-14.686 2.396-8.6284 2.2646-9.3399-1.7256-9.3399h-3.3806l-0.6663 7.15c-1.1822 12.686-3.8602 17.172-8.7043 14.579-2.0533-1.0989-2.3061-20.794-0.30837-24.026 0.29265-0.47351 0.94452-7.011 1.4486-14.528 0.96-14.36 2.49-18.34 7.04-18.34 4.9866 0 5.85 16.343 1.5057 28.5-0.39307 1.1 1.083-1.2978 3.2801-5.3285 8.4853-15.567 14.125-13.883 12.611 3.7642-0.91129 10.623-0.8975 15.622 0.0595 21.564 1.1575 7.1882-6.0756 14.104-11.218 10.726zm65.175-5.1777c-6.4094-2.598-9.2321-16.23-3.9463-19.059 3.2515-1.7402 5.1749-0.0913 6.6288 5.6826 0.60841 2.4162 1.8961 4.8158 2.8616 5.3325 6.1039 3.2667 0.98682 10.691-5.544 8.0435zm-106.46-10.78c0-0.97763-0.67883-2.7467-1.5085-3.9312-1.6364-2.3363-2.4062-31.027-0.98075-36.554 0.44163-1.7123 0.24617-3.325-0.51401-4.241-4.156-5.0077-1.5261-48.903 3.4036-56.809 1.8448-2.9586 2.8503-10.35 1.7002-12.499-0.51361-0.95968-1.0372-7.3571-1.1635-14.216-0.17302-9.3957-0.67629-13.527-2.0406-16.752-2.4292-5.7419-4.4718-27.945-2.9856-32.453 0.59225-1.7965 1.2948-7.5414 1.5612-12.766 0.83101-16.297 2.4686-31.341 3.5269-32.399 0.68641-0.68641 0.17394-1.6853-1.5836-3.0867-2.6652-2.1252-5.0228-13.923-3.8012-19.022 0.33032-1.3787-0.63044-3.085-3.0666-5.4462-4.0235-3.8997-4.2198-5.2378-1.865-12.708 2.4741-7.8487 6.1138-6.803 4.3008 1.2356-0.47337 2.0989-0.63674 4.1785-0.36304 4.6213 1.278 2.0678 2.2882 0.31921 2.8566-4.9448 0.34152-3.1625 0.99814-6.4501 1.4592-7.3058 0.61994-1.1507 0.15146-1.8634-1.799-2.737-5.019-2.248-5.9998-6.6905-3.4768-15.747 0.97442-3.4977 1.7358-10.298 1.8429-16.46 0.1004-5.775 0.91242-13.425 1.8045-17 1.8765-7.5203 2.1225-13.327 0.67883-16.025-0.68932-1.288-0.67127-3.42 0.0565-6.6673 0.81642-3.643 0.69049-8.2124-0.53164-19.291-1.9414-17.598-1.8915-17.419-4.4737-16.037-2.37 1.29-6.04-1.69-6.04-4.89 0-1.0607-0.66461-2.5932-1.4769-3.4055-3.4065-3.4065-1.7245-14.674 2.6561-17.794 1.8035-1.2842 2.5749-2.4063 1.9288-2.8056-1.0221-0.63169-1.2543-3.8661-1.0098-14.067 0.0593-2.475-0.41212-6.525-1.0476-9-1.834-7.1424-1.7901-7.3847 1.4494-8.0136l3-0.5824-3.2355-1.7202c-3.304-1.7566-4.9841-5.3661-3.8605-8.2942 0.84144-2.1928 3.596 0.0283 3.596 2.8995 0 1.1243 0.23579 1.8084 0.52397 1.5202 1.85-1.84 1.24-24.81-0.65-24.81-1.1604 0-2.6626-1.2629-3.6685-3.0843-0.93692-1.6964-2.9033-4.4885-4.3698-6.2047l-2.6663-3.1204-0.53117 3.4547c-0.29214 1.9001-0.79475 6.1359-1.1169 9.4129-0.87674 8.918-1.4682 10.491-4.2032 11.177-4.1532 1.0424-4.4142-0.33825-2.9667-15.692 1.4745-15.64 1.3996-16.571-1.4041-17.461-5.2104-1.6537-7.9094 3.1667-8.0249 14.332-0.0437 4.2267-0.40567 11.51-0.80431 16.185-0.62786 7.3631-0.49863 8.6642 0.96619 9.7273 1.6483 1.1963 1.8201 9.7937 0.34016 17.023-0.5179 2.5298-5.0796 3.193-7.2225 1.05-1.8841-1.8841-1.5457-13.76 0.45499-15.971 1.4522-1.6047 1.4653-1.8287 0.10699-1.8287-2.6248 0-2.9166-2.8778-2.1906-21.607 0.74742-19.282 0.55089-20.207-3.8529-18.129-3.1036 1.4647-3.6291 4.3563-3.7681 20.735-0.15471 18.232-1.1324 31.091-2.4579 32.329-0.93059 0.86931-0.7241 1.3714 0.89989 2.1881 1.7063 0.85813 2.0484 1.8142 1.7967 5.0212-0.171 2.1787 0.18111 6.1555 0.78247 8.8372 1.1615 5.1799-0.38064 9.624-3.3396 9.624-4.8146 0-8.3554-16.178-4.6406-21.202 1.8796-2.5423 1.8948-2.7625 0.25386-3.6855-1.5952-0.89733-1.7304-3.1381-1.5725-26.078l0.1727-25.096-3.6727 0.66347c-2.02 0.36491-3.8407 0.80929-4.046 0.98751-0.40088 0.34791-2.183 34.269-2.1494 40.911 0.0948 18.72-0.41943 21.5-3.9772 21.5-3.7122 0-4.1268-3.0743-3.9213-29.074 0.21152-26.757 0.24915-26.476-3.4215-25.555-3.3777 0.84775-3.9568 3.7055-4.18 20.629-0.10518 7.975-0.32605 19.91-0.49083 26.523-0.19304 7.7468 0.11178 12.792 0.85702 14.184 1.725 3.2233 1.5226 37.227-0.23544 39.543-4.5151 5.9479-6.76 0.14132-7.2492-18.75-0.21362-8.25-0.62364-16.35-0.91114-18s-0.61833-17.138-0.73517-34.417c-0.14976-22.148-0.54319-31.527-1.3336-31.79-2.1212-0.70613-3.293 8.2933-3.9928 30.666-0.48654 15.554-1.1106 23.204-2.0375 24.981-0.73491 1.4082-1.339 3.123-1.3424 3.8104-0.0131 2.6495-4.7617 1.36-5.4763-1.4871-0.60368-2.4052-0.13698-22.956 0.961-42.316 0.63-11.17-0.25-14.95-3.5-14.95-3.3302 0-5.2556 1.9635-3.9552 4.0335 0.88438 1.4078 0.40504 32.792-0.66387 43.466-0.27539 2.75-0.68896 10.32-0.91905 16.822-0.35192 9.9446-0.7484 12.285-2.4971 14.741-1.681 2.3608-2.1611 4.8502-2.5093 13.011-0.23682 5.5506-0.69443 10.519-1.0169 11.041-0.32248 0.52178-0.9983 5.3032-1.5018 10.625-0.94134 9.9497-2.3498 13.08-5.365 11.923-2.8982-1.1122-3.2544-4.9551-1.9615-21.162 0.702-8.8 1.304-19.739 1.3377-24.309 0.0565-7.6494 0.295-8.6015 3.0062-12l2.95-3.69 0.61-22.5c0.50606-18.574 1.6264-35.241 2.7793-41.347 0.32169-1.7035-4.5518-0.80651-6.0322 1.1103-0.89331 1.1567-1.2524 6.7716-1.2586 19.677-0.0119 25.078-1.3979 39.623-4.252 44.621-4.3936 7.6935-4.4986 6.7099-4.793-44.927-0.17818-31.254-2.1454-26.419-3.4038 8.3652-0.27855 7.7-0.95682 18.275-1.5073 23.5-1.6807 15.954-1.584 16.734 2.0096 16.207l3.045-0.44691-0.52571 8.8701c-1.0667 17.998-1.866 35.954-1.7303 38.87 0.20495 4.4033-1.651 9.2189-3.7661 9.772-4.0447 1.0577-4.2212-0.0145-3.9755-24.145 0.22214-21.816 0.12432-23.248-1.6783-24.565-1.6079-1.1746-1.9102-2.6516-1.8895-9.2303 0.0493-15.635 1.5111-58.913 2.097-62.082 0.35278-1.9081 0.18621-3.25-0.40344-3.25-3.38 0-5.2613 18.333-4.7116 45.914 0.32517 16.314 0.13035 23.819-0.64245 24.75-1.385 1.6689-5.493 1.7461-6.4967 0.12212-1.9315-3.1252-2.4875-53.175-0.67487-60.746 1.7858-7.4585 1.6957-9.2611-0.44267-8.8506-1.3879 0.26645-1.7839 1.4713-1.9139 5.8233-0.0901 3.018-0.50786 12.012-0.92829 19.987s-0.71178 14.95-0.64745 15.5c1.5061 12.877 2.1503 26.798 1.3125 28.364-0.69334 1.2955-0.66358 3.8926 0.0939 8.1927l1.109 6.2959 1.886-3.6762c1.0373-2.0219 2.2869-3.6762 2.7768-3.6762 3.46 0 2.2388 47.95-1.4053 55.173-1.4441 2.8622-2.535 7.1247-2.8154 11-0.2518 3.4799-0.2833 5.202-0.07 3.827 1.5726-10.137 6.4584-13.907 7.6698-5.9173 2.4805 16.36-0.0446 33.621-5.2032 35.568-2.9106 1.099-3.0413 2.743-1.5784 19.849 1.1873 13.883-6.9997 26.019-8.939 13.25-0.98196-6.4654-1.9848-20.36-1.8224-25.25 0.0913-2.75 0.29272-14.45 0.44757-26 0.27452-20.475 0.34871-21.138 2.9657-26.5 3.2477-6.655 5.2934-36 2.5096-36-4.3691 0-6.0211-7.5543-7.7452-35.417-0.5417-8.7545-1.4647-16.495-2.051-17.202-0.75783-0.91314-0.71361-2.8597 0.15294-6.7319 0.93509-4.1784 0.95431-7.2273 0.0825-13.089-1.5922-10.705-1.4463-13.97 0.71176-15.923 2.4677-2.2332 2.744-8.0852 0.33713-7.1394-0.927 0.36426-4.3854 1.1264-7.6854 1.6936-3.9843 0.68484-6.6128 1.7498-7.8239 3.1699-1.1404 1.3371-2.0016 1.71-2.2979 0.99478-0.46779-1.1287-3.9335-0.74525-5.8782 0.65038-2.5833 1.854-6.1851 1.8396-9.0305-0.036-1.6332-1.0766-4.4461-1.9604-6.2509-1.964-3.7447-0.008-5.1928-2.2171-3.368-5.1391 1.0614-1.6996 0.82837-1.8663-2.5922-1.8539-4.7974 0.0174-8.2585 0.94363-8.2585 2.21 0 0.5447 0.675 0.73134 1.5 0.41475 0.94064-0.36095 1.5 0.01 1.5 0.99371 0 1.2563-0.8477 1.4718-4.25 1.0802-21.302-2.4514-17.346-12.706 5.091-13.197 10.969-0.24016 13.159 0.36156 13.159 3.616 0 1.6278 0.27046 1.7171 1.975 0.65259 1.5585-0.97329 2.2334-0.97508 3.2-0.008 1.7646 1.7646 3.147 1.5067 2.3972-0.44732-0.43263-1.1274 0.56144-2.9044 3.051-5.454 2.0725-2.1224 3.8304-5.0086 4.0064-6.5777 0.99735-8.8901 1.3028-10.512 2.1837-11.599 0.53413-0.6586 0.79458-4.1225 0.57878-7.6975s-0.77642-20.45-1.2458-37.5c-0.46941-17.05-1.2042-31.818-1.6328-32.817-0.70975-1.6552-0.1952-3.4182 2.6031-8.919 1.4253-2.8018 1.0413-3.5164-1.6167-3.0083-2.6433 0.5053-3.4604-1.3949-1.4599-3.3953 0.71983-0.71983 0.72018-2.4675 0.001-5.6761-2.1126-9.4266-1.7377-13.918 1.5004-17.976 3.3598-4.2108 4.4223-4.5619 5.1687-1.7078 0.28766 1.1 0.91196 2 1.3873 2 1.1712 0 2.2584-4.615 1.4105-5.987-0.37412-0.60535-0.26132-1.6434 0.25069-2.3068 1.5117-1.9588 3.2465-9.7616 3.6031-16.206 0.31717-5.7325 0.4457-5.9922 2.8827-5.8258 2.1166 0.14459 2.6613-0.36593 3.2005-3 1.5754-7.6952 1.6897-9.4729 0.65055-10.115-2.0992-1.2974-1.0653-3.8841 3.5056-8.7708 4.0942-4.377 5.5189-7.7022 2.1729-5.0715-2.2956 1.8048-7.6405 2.3418-8.4921 0.8531-0.62833-1.0984-1.9294-1.1682-6.6169-0.35459-5.7114 0.99129-5.9017 0.94952-9-1.9758-4.0112-3.7872-16.566-5.9976-13.25-2.3327 0.97913 1.0819 1.4846 2.4455 1.1233 3.0302-2.4184 3.9131-12.81-6.4722-11.727-11.721 0.97255-4.7158 3.78-5.1679 14.186-2.2842 5.4817 1.5191 7.6783 1.7514 8.682 0.91841 1.1181-0.92795 9.3528-1.4498 15.33-0.97148 4.8127 0.38511 8.8907 8.8199 5.7721 11.939-0.95693 0.95693-0.26095 1.132 3.25 0.81748 3.0995-0.27765 4.5667-0.89557 4.791-2.0177 0.37488-1.8754 1.3334-2.0608 2.8439-0.55026 0.75629 0.75629 1.2424 0.61062 1.6686-0.5 0.42053-1.0959 0.009-1.5672-1.3672-1.5672-5.9031 0-0.62229-9.1227 5.3792-9.2928 9.9631-0.28242 9.1071 9.4189-1.7463 19.79-8.1928 7.829-8.9706 9.0628-5.1015 8.0918 3.0157-0.7569 3.3849 2.012 1.0853 8.1404-0.77811 2.0736-1.6796 7.0148-2.0033 10.98-0.3237 3.9656-1.0129 8.2406-1.5316 9.5s-1.6342 4.8064-2.4788 7.8823c-1.9135 6.9681-5.1766 11.48-7.1299 9.8591-1.71-1.39-3.44-0.37-3.44 2.08 0 1.4291 0.65878 1.8342 2.75 1.691 2.5782-0.1765 2.77 0.0927 3.0696 4.3099 0.17579 2.474 1.0152 5.2668 1.8653 6.2062 1.2336 1.3631 1.4183 3.1806 0.91477 9.0018-0.34701 4.0116-0.89946 11.893-1.2277 17.515-0.41137 7.0459-1.041 10.589-2.0268 11.408-3.2492 2.6966-3.6912-0.39835-2.356-16.499 0.70586-8.5121 1.0112-16.186 0.67844-17.053-1.194-3.1114-2.3324-1.4704-3.2422 4.6735-0.9542 6.4437-3.7296 8.8459-6.7409 5.8347-0.59656-0.59656-1.7822-1.0704-2.6347-1.0529-1.2306 0.0253-1.15 0.33431 0.39113 1.5 1.0676 0.80751 1.5176 1.4862 1 1.5082-0.51762 0.022 0.23259 0.67797 1.6672 1.4577 2.7943 1.5188 3.7665 5.3715 4.01 15.892 0.12819 5.5367 1.5517 12.788 1.7634 8.9829 0.15335-2.7576 2.6308-4.9702 3.6744-3.2816 0.4038 0.65336 0.8523 12.488 0.99668 26.299 0.20618 19.723 0.64921 26.879 2.0647 33.351 1.3738 6.2815 1.5247 8.5176 0.63473 9.4076-1.4684 1.4684-4.2523-0.55313-4.2523-3.0878 0-0.93236-0.88941-5.0398-1.9765-9.1276-2.1921-8.2434-2.5131-13.514-1.0563-17.346 1.41-3.72 0.93-25.58-0.57-25.58-1.5239 0-4.9808 5.0209-4.0783 5.9234 0.77057 0.77057 0.74085 2.0101-0.10421 4.3471-0.87144 2.4099-0.92404 6.0236-0.20013 13.749 1.9526 20.838 2.7745 25.046 5.4058 27.678 1.3466 1.3466 2.7317 3.7387 3.0781 5.3158 0.61784 2.813 5.9657 6.9867 8.9522 6.9867 0.73742 0 3.2992 1.1196 5.6928 2.488 4.6546 2.6609 17.032 3.6472 18.381 1.4648 0.38005-0.61493 4.0167-0.97801 8.809-0.87949 5.7489 0.11819 9.301-0.32804 12.015-1.5094 2.4326-1.0587 4.94-1.4386 6.7997-1.0302 1.8807 0.41307 4.2108 0.0469 6.4433-1.0124 3.3849-1.6062 8.4052-1.3991 10.903 0.44983 2.7156 2.0098 5.9163 1.8565 8.613-0.41266 3.7808-3.1813 18.545-4.7472 20.431-2.1669 1.0578 1.4467 1.3336 1.4607 2.4427 0.12425 0.68765-0.82857 3.1094-2.0344 5.3816-2.6797 2.2722-0.64525 4.5589-1.5473 5.0814-2.0046 0.5225-0.45728 2.3731-0.83142 4.1125-0.83142 2.0168 0 4.5468-1.1001 6.9835-3.0366 2.3866-1.8966 4.4091-2.7869 5.3875-2.3714 4.1608 1.7668 6.1134 1.5463 9.1833-1.0369 2.2264-1.8734 3.485-2.3532 4.2268-1.6114 1.513 1.513 4.0596 1.3058 7.3815-0.60072 3.4454-1.9774 8.2501-1.1534 8.9533 1.5355 0.51438 1.967 9.9852 8.1215 12.498 8.1215 3.4395 0 3.8272 2.2818 3.2454 19.096-1.3307 38.455-1.1718 42.136 1.8436 42.717 0.98801 0.19027 1.7348-0.27647 1.7348-1.0842 0-5.9316 7.8957-5.7581 9.75 0.21421 3.2346 10.418-1.3213 24.68-6.7924 21.263-2.6944-1.6827-7.4651-1.504-8.9928 0.33677-1.8488 2.2277 0.30768 4.3063 2.543 2.4511 3.1883-2.6461 4.8895 0.95853 4.6982 9.9547-0.14584 6.8578 0.0934 8.1416 1.6748 8.988 6.9854 3.7385 9.61 46.69 3.2071 52.484-1.3478 1.2197-2.024 3.8072-2.5396 9.7187-0.38652 4.431-1.3381 10.15-2.1147 12.709-1.9733 6.5021-1.8625 7.298 0.91865 6.6 3.417-0.85761 5.7908 4.7884 6.749 16.052 0.42109 4.95 1.23 11.871 1.7976 15.38 1.1333 7.0064 0.42462 9.5648-2.9458 10.635-2.9972 0.95129-4.6474-0.96725-5.4161-6.2971-1.0516-7.291-1.7247-9.5321-2.4905-8.2929-1.0159 1.6438-0.46265 11.137 0.83979 14.409 0.62044 1.5586 0.89251 3.2151 0.6046 3.6809-0.2879 0.46584-0.0661 1.1296 0.49285 1.4751 0.55897 0.34546 1.0163 0.15156 1.0163-0.4309s0.675-1.059 1.5-1.059c1.7841 0 2.0229 4.1544 0.41194 7.1645-1.0088 1.885-0.86794 1.9847 1.9343 1.3692 8.4263-1.8507 8.7706 32.713 0.35799 35.941-3.5377 1.3576-4.1769-1.1953-3.524-14.076 0.83476-16.47-1.3487-17.858-2.9885-1.8991-0.22606 2.2 0.0883 7.6764 0.69864 12.17l1.1096 8.1697 4-1.9556c2.2-1.0756 4.9-1.8269 6-1.6697 2.0483 0.29278 2.07 0.41814 1.5183 8.7859-0.26951 4.0878 0.4652 10.584 1.9194 16.971 1.2342 5.421-2.3382 22.795-4.9377 24.014-0.825 0.38696-2.5064 1.2235-3.7364 1.859-2.99 1.56-4.24 1.46-4.24-0.34 0-0.825 0.3375-1.5 0.75-1.5s0.76439-2.1375 0.78199-4.75 0.41096-6.1 0.87415-7.75c0.80834-2.8795 0.76893-2.9303-0.98143-1.2648-3.0088 2.8629-3.2253 22.48-0.31438 28.493 1.1913 2.4609 2.2643 6.2175 2.3846 8.3481 0.12021 2.1306 0.68216 4.4476 1.2488 5.1489 2.1339 2.6411 2.44 9.4893 0.70123 15.686-1.3643 4.8622-1.4572 6.369-0.46668 7.5626 0.96239 1.1596 0.99639 3.6592 0.15313 11.258-0.59615 5.3723-1.3574 15.168-1.6916 21.768-0.65058 12.847-0.75118 14.153-2.3892 31-0.58821 6.05-1.3497 13.888-1.6923 17.417-0.51173 5.2723-0.33118 6.63 1.0124 7.6124 1.2709 0.92928 1.5788 2.6189 1.3822 7.5833-0.23869 6.0277 1.4872 12.888 3.2424 12.888 1.4715 0 1.8734-29.395 0.41807-30.578-1.0657-0.86662-1.1219-2.8291-0.28672-10 0.57153-4.907 1.5643-16.572 2.2062-25.922 1.155-16.824 1.8286-20.136 3.8422-18.892 1.1816 0.73025 0.33225 21.996-1.5994 40.047l-1.1937 11.155 3.2012-2.4417c5.4397-4.1491 7.185-1.5286 4.9062 7.3664-0.93635 3.6549-1.6293 11.868-1.8227 21.603-0.33387 16.807-0.69939 18.015-5.2948 17.489-2.5047-0.28623-2.9496-0.83947-3.4799-4.3282-0.46136-3.0347-0.64234-3.3254-0.75-1.2046-0.3 5.83-12.15 11.61-12.15 5.94zm8.32-202.47c-0.64699-8.3205-1.4037-10.13-2.405-5.75-0.81013 3.5436-0.37962 7.062 1.2542 10.25 1.4641 2.8569 1.6626 2.081 1.1508-4.5zm-197.77-279.02c0.31946-0.83249 1.8691-1.1429 4.4686-0.89496 5.1209 0.48836 5.1273-1.1317 0.011-2.8202-3.8661-1.2759-7.8472 0.83433-7.9982 4.2396-0.0567 1.2791 3.0014 0.82325 3.5186-0.52448zm4.84 478.52c-0.30248-0.9625-0.96572-2.7889-1.4739-4.0586-1.0298-2.5733-3.9031-19.435-3.9094-22.941-0.007-3.6799 3.6447-2.9184 4.7947 1 1.5389 5.2436 3.0602 11.046 3.6709 14 0.3893 1.8832 1.1929 2.75 2.5494 2.75 2.2486 0 2.7175 3.9325 1.0057 8.4349-1.1687 3.0739-5.7508 3.6366-6.6375 0.8151zm-158.82-2.14c-0.30274-0.48983 0.606-1.6483 2.0194-2.5744 1.4757-0.96689 2.3416-2.2785 2.0339-3.0804-0.29476-0.76814 0.17352-2.1061 1.0406-2.9732 0.86711-0.86711 1.3118-1.8414 0.98814-2.165-0.32363-0.32363-3.1897 1.9422-6.369 5.0352-7.7523 7.5417-12.585 6.0984-8.923-2.6649 3.8308-9.1684 15.863-13.944 18.082-7.1768 0.53929 1.6446 1.0774 3.1441 1.1958 3.3321 0.1184 0.18799 1.7115-0.10883 3.5401-0.6596 12.91-3.8882 13.607-4.2833 23.472-13.302 10.493-9.5921 23.575-8.6522 13.6 0.97708-15.347 14.815-27.344 21.047-35.226 18.299-3.112-1.09-7.022 1.04-7.022 3.81 0 2.1113-7.3714 4.8518-8.4324 3.1351zm273.03-8.86c-1.8645-9.2187-1.6316-34.25 0.31867-34.25 2.8511 0 3.2422 1.148 4.2111 12.362 0.48177 5.5759 1.148 12.644 1.4806 15.708 0.83041 7.6496-4.5867 13.22-6.0104 6.1803zm10.4 1.02c0-1.0265 0.48733-2.3538 1.083-2.9494 0.65886-0.65886 1.0486-5.4365 0.99512-12.2-0.09-11.06-0.08-11.12 2.28-11.12 3.5552 0 5.3481 19.05 2.3529 25-1.59 3.17-6.71 4.14-6.71 1.27zm-108.72-0.52c-3.489-4.4969-5.3582-16.095-2.9776-18.476 2.4556-2.4556 4.4959-0.83456 5.2461 4.1678 0.80619 5.3761 2.245 5.762 4.8537 1.3019 1.629-2.7851 1.925-5.5764 2.0936-19.744 0.10802-9.075 0.71273-19.875 1.3438-24s1.375-20.325 1.6532-36c0.27819-15.675 0.66757-30.075 0.86528-32s-0.2428-7.55-0.97891-12.5c-2.241-15.07 0.23185-24.216 5.22-19.307 4.0571 3.993 5.5743 92.927 1.7869 104.74-0.74804 2.3334-0.63377 36.321 0.13218 39.316 0.90351 3.532 1.4175 3.4632 4.6804-0.62605l2.6937-3.376-0.34952-31.874c-0.19-17.53-0.61-33.22-0.92-34.87-1.32-7.05-1.91-32.2-0.77-32.91 0.63-0.39 1.15-2.03 1.15-3.65 0-1.95 0.51-2.94 1.5-2.94 0.87839 0 1.5147 0.93242 1.5354 2.25 0.0195 1.2375 0.67854 3.375 1.4646 4.75 0.84896 1.4851 1.4468 5.3417 1.4728 9.5 0.024 3.85 0.47993 10.825 1.0132 15.5 0.53325 4.675 1.2143 17.95 1.5136 29.5 0.92024 35.523 0.84785 43.667-0.39499 44.435-1.0497 0.64876 0.45038 6.9173 2.4167 10.099 2.103 3.4027 7.5973-3.6438 7.0442-9.0343-0.31033-3.025-0.8099-12.25-1.1101-20.5-0.30024-8.25-0.72105-15.675-0.93512-16.5-2.4752-9.5391-1.3406-32.443 1.8211-36.762 1.0367-1.4161 4.0517 0.31746 3.1342 1.8021-0.2764 0.44723 0.15794 5.0087 0.96521 10.137 0.80727 5.128 1.7493 14.724 2.0933 21.324 0.55942 10.731 1.726 24.572 3.1606 37.5 0.27465 2.475 0.90574 4.9275 1.4024 5.45 1.5216 1.6007 1.0762 11.161-0.58422 12.539-2.44 2.02-4.51 0.44-4.51-3.47 0-4.5645-0.67691-4.4552-6 0.96862-5.9186 6.0306-8.4738 5.5789-14.007-2.4766l-1.5068-2.1938-2.7432 2.1578c-1.51 1.19-2.74 2.82-2.74 3.62 0 5.1085-6.6365 1.7252-8.1123-4.1357-1.5148-6.0156-3.0894-5.0172-7.5417 4.7818-1.3218 2.9092-4.3896 3.6671-6.071 1.5zm-96.659-3.7449c-3.0869-3.1464-3.109-3.5788-0.81858-16.005 1.6331-8.8599 8.4974-16.993 13.107-15.53 2.7652 0.87766 2.8914 6.4999 0.20053 8.9351-3.0922 2.7984-3.3427 6.5952-0.43508 6.5952 1.316 0 2.6767 0.74007 3.0238 1.6446 0.78075 2.0346-2.1464 4.3554-5.4934 4.3554-2.1007 0-2.3322 0.33875-1.768 2.5869 1.742 6.9406-3.4502 11.868-7.8162 7.4183zm185.37-4.26c-1.0899-1.7875-1.9969-3.925-2.0157-4.75-0.0268-1.1796-0.2519-1.1261-1.0534 0.25-1.5005 2.5761-5.7795 2.2494-6.8331-0.52166-4.0005-10.522-0.14981-29.638 4.6485-23.076 1.0769 1.4728 1.2452 0.12952 1.0264-8.1956-0.1571-5.9781 0.13794-10.098 0.73833-10.31 1.7491-0.61774 4.3512 5.1893 4.4269 9.8794 0.12999 8.05 2.1314 21.186 3.6859 24.192 0.92248 1.7839 1.2701 4.0386 0.88964 5.7708-0.35359 1.6099-0.0958 3.6894 0.59439 4.7946 0.67035 1.0734 0.93692 2.6862 0.59238 3.5841-1.0542 2.7472-4.5541 1.9023-6.7002-1.6175zm-207.03-0.58128c-4.2811-3.4666 0.26015-9.7559 9.2909-12.867 6.9177-2.3833 13.096 1.6362 8.6014 5.5962-1.1563 1.0188-2.9741 2.6116-4.0395 3.5395-1.5664 1.3642-10.084 5.5628-11.285 5.5628-0.16847 0-1.324-0.82408-2.5678-1.8313zm415.29-1.42c-1.4212-1.7897-2.1988-21.575-1.1814-30.062 0.47392-3.9535 1.0423-12.716 1.263-19.472 0.22071-6.7563 0.66649-12.549 0.99062-12.874 1.2768-1.2768 3.5049 0.59459 3.0011 2.5208-0.41256 1.5776 0.0433 2.0523 2.2198 2.3112 3.6379 0.43268 4.4912 3.1634 2.914 9.3258-1.6142 6.3071-2.5348 25.137-1.4755 30.183 2.3504 11.196 2.2445 14.201-0.59352 16.831-2.9345 2.7196-5.5941 3.1801-7.138 1.2359zm-235.67-4.9908c-2.3656-14.793 0.28427-47.725 3.9535-49.133 2.7588-1.0586 3.5255 4.1194 3.3975 22.946-0.0801 11.778 0.29915 19.587 1.0637 21.903 1.5623 4.7339-0.61076 8.524-4.8873 8.524-2.5777 0-2.9138-0.40404-3.5273-4.2408zm248.4 1.6757c-1.2625-3.3205-1.243-17.257 0.0349-24.935 0.5492-3.3 1.0171-15.45 1.0397-27 0.0456-23.267 0.31042-25.5 3.0234-25.5 4.5009 0 4.4985-0.0346 5.1119 73.808 0.0465 5.5971-7.3529 8.5108-9.2099 3.6265zm-383.98-2.25c-1.925-0.92733-3.65-2.0236-3.8333-2.436-0.18334-0.4125-0.96226-0.75-1.731-0.75-1.953 0-2.9479-4.6779-1.3933-6.5512 0.95345-1.1488 2.3381-1.3644 5.6117-0.87347 3.5847 0.53757 4.3459 0.37218 4.3459-0.94428 0-2.3597 8.0701-10.36 11.258-11.16 3.7771-0.948 7.2894 1.5425 9.9772 7.0748 2.2485 4.628 4.5108 6.1333 3.3122 2.2037-0.3775-1.2375-1.2472-4.275-1.9327-6.75-1.1113-4.0125-1.5642-4.504-4.1803-4.5365-5.433-0.0676-7.8134-3.857-8.9975-14.323-0.97604-8.6271 2.598-13.174 9.0774-11.548 2.4341 0.61092 12.486 18.875 12.486 22.686 0 2.7989 2.1518 11.04 3.6228 13.875 3.8364 7.3938-10.789 18.858-15.119 11.851-1.9238-3.1128-4.358-2.9687-8.5146 0.50404-4.7343 3.9554-8.357 4.3896-13.989 1.6766zm358.35 0.56839c-0.80292-1.2992-2.4507-10.152-2.3741-12.754 0.34994-11.887 1.2487-14.619 4.4103-13.406 1.355 0.51996 1.5658 1.3207 0.99569 3.7828-0.39772 1.7178-0.61795 7.7357-0.48938 13.373 0.2213 9.7039-0.50983 12.293-2.5425 9.0044zm41.934-6.7064c-3.8043-3.5443-4.5533-7.9895-3.3372-19.806 1.1116-10.802 0.0481-53.826-1.3879-56.15-0.36034-0.58304-0.15186-7.5212 0.46329-15.418 0.84512-10.849 0.83016-16.413-0.0612-22.766-0.65-4.63-1.29-14.03-1.43-20.91-0.13808-6.875-0.73788-14.3-1.3329-16.5-1.472-5.4426-1.6991-15.312-0.73822-32.085 0.60545-10.569 0.4889-15.049-0.46689-17.945-0.8699-2.6358-1.1511-8.1573-0.88678-17.415 0.21283-7.4555 0.23429-23.518 0.0477-35.695-0.19723-12.87 0.0615-22.919 0.61791-24 0.52645-1.023 1.2477-4.4476 1.6028-7.6101l0.64563-5.75h-3.0335c-4.3126 0-7.0604-8.5236-3.7992-11.785 0.91311-0.91311 0.69534-2.165-0.94957-5.4586-1.1739-2.3506-2.4412-6.1924-2.8162-8.5373-0.37498-2.345-1.0727-4.5052-1.5504-4.8004-1.131-0.69901-1.0598-11.908 0.13617-21.419 0.88313-7.0233 1.199-7.7242 4.9691-11.027 3.5224-3.086 4.026-4.0616 4.026-7.7983 0-2.3491 0.92246-6.1618 2.0499-8.4727 2.5146-5.1541 1.0859-20.023-2.0871-21.722-2.5688-1.3748-3.1021-6.3543-1.5328-14.313 1.2065-6.1188 1.576-10.676 1.6557-20.417 0.008-0.9625-0.50733-7.825-1.1449-15.25-1.0262-11.951-1.8135-33.046-1.6608-44.5 0.0935-7.0103 0.001-8.8578-0.78195-15.639-0.87467-7.5747 1.8267-11.363 6.3691-8.9321 2.8337 1.5165 5.8088 1.3295 8.6698-0.5451 1.3566-0.88889 3.3658-1.381 4.4648-1.0936s1.9982 0.14598 1.9982-0.31427c0-0.46026 2.1375-0.79577 4.75-0.74559 11.698 0.2247 25.457-6.2348 26.805-12.584 1.01-4.73 3.2-6.65 7.6-6.65 2.12 0 3.85-0.45 3.85-1 0-3.2534 9.0605-0.93907 10.766 2.75 2.6698 5.7743 7.9808 7.4599 10.235 3.2484 0.58919-1.1009 2.544-2.617 4.344-3.3691 4.5973-1.9209 12.419-7.7907 13.165-9.8803 1.4762-4.1322 9.4114-3.7234 11.059 0.56964 0.55874 1.4561 12.391 1.9513 14.04 0.58762 2.0651-1.7076 12.862-4.6354 28.891-7.8341 10.269-2.0492 10.531-2.6014 9.7803-20.572-0.25276-6.05-0.41727-13.222-0.36557-15.938 0.0873-4.5879-0.87205-6.5037-3.2783-6.5464-0.90759-0.0161-0.38016 5.2674 1.5739 15.766 0.91468 4.9145 0.89027 7.9409-0.11218 13.907-1.6262 9.678-1.8908 10.312-4.3058 10.312-2.1268 0-2.1272-0.022-0.2199-12.741 0.50235-3.35 0.30266-4.3693-0.9502-4.8501-4.096-1.5718 0.11792-24.599 4.8294-26.39 2.8393-1.0795 3.5124-4.7112 1.0484-5.6568-1.1715-0.44954-1.5034-2.4685-1.5154-9.2186-0.009-5.1653-0.78902-11.713-1.9381-16.272-1.0575-4.1958-1.6657-8.6116-1.3516-9.8127 0.39948-1.5276-0.0698-2.6328-1.5617-3.6778-1.9837-1.3894-2.1001-2.1533-1.6648-10.922 0.44583-8.9809 1.3398-12.257 5.8361-21.385 1.8721-3.8007 1.1172-21.329-1.1836-27.482-5.56-14.87-5.89-20.6-1.18-20.6 5.822 0 5.9637-7.3175 0.24485-12.643-2.57-2.4-5.22-4.36-5.89-4.36-0.66642 0-2.2583-1.1287-3.5374-2.5082-3.26-3.5158-8.0463-4.7721-10.153-2.665-0.89249 0.89249-3.3055 1.6911-5.3623 1.7747s-6.8896 0.94354-10.74 1.911c-10.911 2.7418-20.881 2.0126-22.031-1.6116-1.014-3.1948 0.92052-4.4016 9.2314-5.7589 4.2901-0.70064 10.858-1.7699 14.595-2.3761 11.699-1.8978 5.358-3.7476-12.709-3.7075-3.2528 0.007-6.3803-0.45295-6.95-1.0226-1.6164-1.6164-3.0297-1.2153-1.6358 0.46423 1.0429 1.2566 0.88528 1.5-0.97117 1.5-1.3661 0-2.4143-0.7579-2.7328-1.9761-0.41253-1.5775-0.89115-1.7758-2.3729-0.98275-2.9795 1.5946-11.245 1.361-14.679-0.41487-4.0429-2.0907-4.24-2.0618-4.2655 0.62373-0.0683 7.1927-18.611 11.457-23.447 5.3916-1.4417-1.8079-2.5312-2.451-2.9644-1.75-0.37676 0.60961-1.896 1.1272-3.376 1.1503-3.8586 0.0601-10.781 3.8563-7.141 3.9162 2.9538 0.0486 4.95 1.715 4.95 4.1324 0 1.2767-2.0192 2.2173-8.25 3.8432-10.358 2.7027-14.732 4.5669-18.148 7.7345-3.232 2.9968-7.3651 4.3336-10.18 3.2925-1.678-0.62073-2.2617-0.22487-3.1539 2.1389-1.0326 2.7355-0.12623 4.0973 1.2475 1.8745 0.34878-0.56434 1.6128-0.94435 2.809-0.84448 5.4409 0.4543 7.916-0.26934 10.481-3.0644 8.18-8.91 30.2-14.81 30.2-8.09 0 1.1118 0.92767 2.9491 2.0615 4.0829 3.9972 3.9972-2.5198 9.5958-13.238 11.372-5.5308 0.91656-11.401 2.0817-20.934 4.1549-8.8561 1.9261-13.018 0.84625-13.865-3.5977-0.27257-1.4296-0.69856 0.27449-1 4.0004-0.6558 8.1059-2.4948 8.9311-7.5659 3.3947-3.548-3.8735-4.4226-6.8969-2.2092-7.6372 1.4958-0.50035 1.4284-9.0082-0.10097-12.749-0.89205-2.1816-1.0303-1.8388-1.0856 2.691-0.0674 5.5202-1.2386 7.2384-3.5987 5.2797-1.0746-0.89183-1.4226-3.4269-1.3503-9.8361 0.1-8.85-0.7-14.14-2.14-14.14-0.44734 0-0.85767-3.4875-0.91185-7.75-0.0542-4.2625-0.16028-8.425-0.23579-9.25-0.44145-4.8235 0.29513-9 1.5873-9 1.197 0 1.1784-0.79155-0.12344-5.25-3.4431-11.792-1.7418-25.728 2.1365-17.5 0.32406 0.6875 0.30265-4.15-0.0476-10.75-1.4154-26.673-1.1331-86.5 0.40816-86.5 1.1168 0 1.2881-0.84056 0.76396-3.75-1.4067-7.8092-3.0566-11.629-6.7203-15.558-2.0795-2.23-3.9414-4.5356-4.1377-5.1234-0.20076-0.60132-2.1759 0.19125-4.5155 1.812-3.3634 2.3299-5.1462 2.8586-9.3233 2.7645-3.6117-0.08137-6.9172 0.67014-10.993 2.4993-4.4627 2.0027-6.7358 2.4706-9.7007 1.9965-3.4675-0.55447-4.2478-0.25448-7.4648 2.8699-5.4347 5.2781-11.876 3.9448-9.7146-2.0109 0.9818-2.7052-0.80553-5.36-4.7271-7.0212-6.232-2.64-4.4081-5.3371 3.5-5.1758 3.7125 0.07574 8.9085-0.25051 11.547-0.72499 4.4653-0.80308 5.0001-0.66788 7.7396 1.9567 3.1196 2.9888 4.3846 2.7497 4.4337-0.83807 0.0273-1.9963 0.48624-2.176 5.03-1.9693l5 0.22742-2.4143-2.0208c-1.8578-1.555-3.1256-1.8505-5.5-1.2821-7.5411 1.8052-36.719 0.61462-38.922-1.5881-1.9201-1.9201 3.497-3.2506 10.408-2.5565 8.34 0.836 16.92-0.175 16.92-1.997 0-2.1666-2.8143-2.5628-9.8973-1.393-5.7552 0.95045-7.2087 0.87645-9.8759-0.50282-3.8924-2.0129-3.8901-2.013-4.4776 0.2337-0.61604 2.3557-7.2966 3.5514-11.553 2.0676-2.1663-0.75517-3.6378-0.75277-5.0598 0.0083-3.1001 1.6591-7.6468 1.2718-9.5328-0.81211-2.3086-2.5509-6.0997-3.2457-19.367-3.5492-12.154-0.27805-12.45-0.36684-12.622-3.7839-0.12746-2.5293-9.4485-4.0503-23.615-3.8535-3.575 0.04967-8.3 0.11756-10.5 0.15088s-6.5875-0.15408-9.75-0.41643-5.75-0.12603-5.75 0.30295c0 0.42897 2.1375 0.98641 4.75 1.2387 2.6125 0.25234 6.325 1.179 8.25 2.0593 1.925 0.88028 4.4 1.7497 5.5 1.9321s2 0.94892 2 1.7034c0 2.326-3.8139 2.9878-8.0445 1.396-2.1756-0.81856-6.5693-1.8489-9.764-2.2896-3.1946-0.44073-6.6834-1.5931-7.7527-2.5609-1.6617-1.5038-2.493-1.5952-5.7186-0.6288-2.0758 0.62193-5.4496 0.85891-7.4973 0.52662-4.8815-0.79215-4.9484 1.3221-0.1389 4.3892 2.8994 1.849 4.8214 2.2123 11.208 2.1185 6.4004-0.09397 8.6413 0.33163 13.208 2.5085 3.025 1.4419 6.2324 2.6261 7.1276 2.6315 3.0279 0.01817 4.5783 3.0205 2.3872 4.6227-2.1875 1.5995-3.9667 1.2307-11.188-2.3192-4.6633-2.2924-5.8954-2.4758-12.5-1.8601-6.658 0.62065-7.7636 0.45027-12.113-1.8667-3.0135-1.6052-6.1957-2.4945-8.5904-2.4006-2.092 0.08197-4.2379-0.11929-4.7685-0.44726-0.53066-0.32797-2.6399-0.21851-4.6873 0.24325-8.7456 1.9724-7.0706-4.1884 2.5828-9.5004 1.5125-0.83228 2.75-1.8968 2.75-2.3656 0-8.4542 99.526-7.1074 100.99 1.3667l0.5099 2.9438 1.7713-2.7034c1.8712-2.8558 7.8685-3.8985 9.2807-1.6136 0.39759 0.64332 2.0038 0.84024 3.9205 0.48067 2.3096-0.43328 3.6251-0.1535 4.5568 0.96914 0.94811 1.1424 2.2982 1.4145 4.8885 0.98536 2.5383-0.42056 4.7183-0.0077 7.4991 1.4202l3.9205 2.0131 1.4482-2.0676c1.2242-1.7478 2.1645-1.9822 6.0795-1.5154 2.5472 0.30373 8.4563 0.98084 13.131 1.5047 22.851 2.5605 26.514 3.702 27.194 8.4745 0.39091 2.7421 3.7112 3.263 7.6885 1.2063 6.62-3.422 21.12 0.053 21.12 5.062 0 0.87916 1.1758 1.3923 3.25 1.4182 2.0534 0.02568 4.403 1.0382 6.3817 2.75l3.1317 2.7094-0.0137 25.069c-0.0103 18.875 0.31205 25.67 1.3048 27.5 0.99029 1.8259 1.3939 10.147 1.6215 33.431 0.16669 17.05 0.5864 34.4 0.93267 38.556 0.90951 10.916-3.5346 19.352-7.6086 14.444-1.9076-2.2985-3-1.7965-3 1.3787 0 2.2611-0.64906 3.1475-3.0255 4.1319-2.0587 0.85275-2.8674 1.7703-2.5306 2.8713 0.27223 0.88996 0.99678 4.9025 1.6101 8.9168 1.43 9.3592 4.1607 15.234 3.8121 8.2013-0.12266-2.475 0.30728-5.4829 0.95542-6.6843 0.64814-1.2013 1.1784-3.9817 1.1784-6.1786 0-5.7633 2.2498-7.8917 6.3615-6.0183 1.9396 0.88372 3.1376 0.77864 5.7007-0.5 3.8656-1.9284 6.1792-2.0226 10.581-0.43084 2.5995 0.93999 3.7942 0.91573 5.7224-0.1162 3.8401-2.0552 8.1342-0.20832 8.1342 3.4985 0 2.6165-0.74158 3.271-7.5 6.6186-8.4061 4.1637-7.972 5.018 0.76987 1.515 5.9174-2.3712 14.033-4.7309 22.73-6.6091 3.9382-0.85047 6.3803-0.75873 11.5 0.43203 3.575 0.83148 9.6798 1.7054 13.566 1.9419 3.8864 0.23659 9.1716 1.145 11.745 2.0186 3.6633 1.2437 5.1456 1.3386 6.8296 0.43733 1.2015-0.64302 4.3134-0.94335 7.05-0.6804 2.6945 0.25891 6.6886 0.14351 8.8757-0.25644 2.1872-0.39996 4.2185-0.33584 4.5141 0.14248 0.29562 0.47831 1.7715 0.86966 3.2798 0.86966s6.5442 1.1574 11.191 2.572 12.949 3.2472 18.449 4.0724c8.3585 1.2541 10.376 1.9159 12.291 4.0316 1.918 2.119 2.8555 2.4252 5.757 1.8809 3.1354-0.58821 3.5672-0.3837 4.5285 2.1446 0.58441 1.5371 1.6805 3.4776 2.4357 4.3121 3.2009 3.5369 4.7305 47.245 1.9243 54.986-2.1096 5.82-2.4028 11.761-0.74451 15.085 1.056 2.1167 1.2828 4.1365 0.75467 6.7208-0.41524 2.032-0.65223 8.4492-0.52664 14.26 0.18197 8.4201-0.0793 10.821-1.2865 11.823-0.83314 0.69145-1.3403 1.7868-1.127 2.4341 0.98739 2.9961 1.2781 15.231 0.38736 16.305-0.65904 0.79409-0.63982 1.4115 0.0574 1.8424 0.57671 0.35642 1.0486 2.1065 1.0486 3.889s0.46299 3.704 1.0289 4.2698c0.64806 0.64806 0.98924 8.9572 0.92179 22.45-0.1407 28.148-0.15818 27.799 1.5623 31.248 2.706 5.4243 0.87321 15.018-3.5258 18.456-2.3884 1.8666-3.9846 2.1596-20.987 3.8528-3.575 0.35601-7.3876 1.2586-8.4725 2.0059-1.0849 0.74721-2.8849 1.3651-4 1.3731s-4.0525 0.73326-6.5275 1.6117c-4.2925 1.5235-14.664 4.0281-20 4.8296-2.4027 0.36094-8.475 1.7329-16.116 3.6411-1.97 0.51-4.76 0.92-6.18 0.92-1.4162 0-2.821 0.39808-3.1217 0.88461-0.586 0.94817-9.1745 2.6129-11.432 2.216-0.74859-0.1316-2.2422 0.70649-3.3191 1.8624-1.575 1.6905-2.6507 1.9718-5.4984 1.4375-1.9472-0.36531-3.8286-0.23563-4.1809 0.28816-1.0744 1.5975-13.806 6.2491-16.815 6.1433-5.63-0.2-15.32 1.46-15.32 2.62 0 2.9759-4.0806 5.4559-10.097 6.1366l-6.1134 0.69166 0.79391 4.1089c2.59 13.4 0.95 59.61-2.12 59.61-1.9228 0-1.8948 2.8978 0.0352 3.6384 1.7562 0.67393 1.9506 3.6512 0.42445 6.5028-0.59156 1.1053-1.1149 6.4757-1.163 11.934-0.0481 5.4585-0.46409 9.9246-0.92445 9.9246-2.0707 0-0.60301 4.0038 1.913 5.2185 4.5482 2.1957 4.1367 35.386-0.50719 40.905-1.6403 1.9494-2.2025 3.4776-1.7075 4.6415 1.6375 3.8502 1.7298 15.568 0.13188 16.737-1.7353 1.2689-0.9248 18.972 1.3505 29.499 0.65384 3.025 0.98626 8.7414 0.73871 12.703-0.28029 4.4859-0.0363 7.6171 0.64673 8.3005 1.5798 1.5805 1.246 18.423-0.49543 24.996-0.99547 3.7577-1.4145 10.093-1.3228 20 0.0738 7.975 0.11661 23.725 0.095 35-0.0704 36.763 0.069 43.397 1.0697 50.919 0.54286 4.0803 0.69078 8.5264 0.32873 9.8802-0.36206 1.3538-0.0353 5.6653 0.72605 9.5812 1.0019 5.1528 1.4432 17.618 1.5972 45.12 0.35651 63.65 2.3672 91.632 5.1197 71.249 0.38985-2.8869 1.169-6.1227 1.7316-7.1907 0.5625-1.068 0.94819-6.794 0.85707-12.724-0.18527-12.059 1.6965-22.301 4.8916-26.622 1.2196-1.6496 2.5597-6.0825 3.3916-11.219 2.5255-15.594 5.1279-20.264 10.206-18.316 1.8284 0.70163 1.8022 1.0276-1.5309 19.02-1.1408 6.1584-2.5182 15.158-3.061 20-1.9584 17.47-3.1247 24.647-4.5665 28.098-0.80718 1.9318-1.2473 3.7328-0.97801 4.002 0.26928 0.26927 0.8158-0.36232 1.2145-1.4035 1.1353-2.9649 4.6043-5.4454 7.0535-5.0436 1.8816 0.30868 2.3267-0.1994 2.8397-3.2417 0.3346-1.9843 1.2202-6.0828 1.9681-9.1078 0.74785-3.025 1.6196-7.1437 1.9373-9.1527 0.96811-6.1222 8.594-9.3502 9.3594-3.9617 0.34756 2.4467-4.0991 24.565-6.3558 31.614-0.80807 2.5243-0.94838 4.6214-0.38032 5.6843 3.3264 6.2239-3.5472 11.562-8.6794 6.741-2.256-2.1194-6.3734-1.1201-6.4489 1.5652-0.0883 3.1398-7.7484 9.5614-11.555 9.687-2.1541 0.071-4.9897 0.96014-6.3014 1.9758-2.9699 2.2997-3.2574 2.2945-5.8332-0.10525zm17.22-751.4c10.33-3.1375 20.5-7.015 20.5-7.8164 0-1.0906-1.6021-1.0543-3.7636 0.0852-0.95504 0.50352-5.1114 1.8712-9.2364 3.0392-4.125 1.1681-9.75 3.2434-12.5 4.612-5.2838 2.6295-3.489 2.6582 5 0.0799zm-32.85-78.4c0.0496-6.4625 0.42153-13.55 0.82654-15.75 0.60911-3.3087 0.50694-3.7807-0.59122-2.7312-2.414 2.3071-2.8623 30.231-0.4853 30.231 0.0879 0 0.20039-5.2875 0.24998-11.75zm-333.15 829.74c-0.40276-0.65168 0.22552-2.4804 1.3962-4.0638l2.1285-2.8789-2.0119-7.26c-1.1065-3.993-2.6818-13.008-3.5005-20.034-0.81877-7.0256-2.1683-14.4-2.9989-16.388-0.84-1.99-1.52-4.44-1.52-5.44 0-1.0032-1.8-5.3025-4-9.5539-4.7137-9.109-4.862-10.555-1.3651-13.305 6.0156-4.7319 10.617 1.6561 16.876 23.427 1.5947 5.5474 2.8112 12.836 3.1712 19 0.53654 9.1879 0.79386 10.173 3.1684 12.129 3.7226 3.0667 2.4249 16.256-2.2174 22.538-1.5849 2.1446-8.1308 3.4541-9.136 1.8276zm-10.896-2.1321c-4.7389-15.276-7.506-29.038-5.9456-29.571 1.2916-0.44131 2.6077 3.0834 4.7451 12.709 0.79386 3.575 2.123 8.6077 2.9537 11.184 1.3031 4.0411 1.3154 4.8456 0.0899 5.8626-1.1052 0.91728-1.5142 0.8765-1.8431-0.18379zm429.02 0.42307c-2.2082-0.56659-1.9164-7.1028 0.73373-16.436 4.9742-17.518 8.9116-51.327 4.2624-36.6-1.2114 3.8374-2.3782 5.5863-4.3363 6.5-6.0237 2.8107-6.4171 1.4935-2.9122-9.75 7.8572-25.205 18.994-31.134 19.07-10.152 0.0378 10.468-4.7388 42.233-7.9349 52.768-0.81491 2.6862-1.4865 6.151-1.4925 7.6997-0.0217 5.6533-2.0957 7.3285-7.3906 5.97zm-400.78-2.53c-0.50881-3.9354-0.36749-12.371 0.33924-20.25 0.9777-10.9-1.8504-35.825-4.5286-39.913-1.856-2.8326-2.2282-8.5872-0.55545-8.5872 0.60149 0 1.3362 0.92768 1.6327 2.0615 1.7258 6.5994 6.8385-14.024 5.3064-21.404-0.62471-3.0092-1.1556-11.701-1.1797-19.314-0.0254-7.9987-0.67785-17.129-1.5455-21.625-1.1964-6.2002-1.2786-9.0627-0.40455-14.082 0.60339-3.4649 1.0988-8.063 1.1008-10.218 0.005-4.7927 3.2154-10.418 5.9464-10.418 3.6157 0 4.2112 3.1575 3.4702 18.399-0.51267 10.545-0.38616 14.504 0.48058 15.04 0.82942 0.51262 1.1414 5.3483 1.0576 16.394-0.0654 8.6169 0.20257 19.585 0.59539 24.375 0.61177 7.4585 0.44397 9.2516-1.1698 12.5-1.7279 3.478-1.8854 6.487-1.9004 36.292-0.0162 32.379-0.38614 36.928-3.273 40.25-1.7571 2.0221-5.1349 2.3364-5.3723 0.5zm373.26-1.6521c-4.81-4.81 0.36-18.1 7.03-18.1 1.03 0 1.87-0.64 1.87-1.43 0-5.6473 9.0038-6.5551 10.795-1.0884 3.0586 9.3353-0.67573 17.967-8.795 20.33-8.4573 2.4606-8.7231 2.4676-10.902 0.28861zm80.569-0.76454c-0.37-0.37-0.67-2.04-0.67-3.71 0-2.3593-0.26667-2.7667-1.2-1.8333-5.5581 5.5581-10.374 0.0749-9.2396-10.52 1.1985-11.191 5.7624-12.619 6.2353-1.9508 0.31981 7.2144 1.5886 8.3596 5.7632 5.2021 3.5844-2.7111 5.4411-1.9448 5.4411 2.2457 0 2.0776 0.68013 4.7485 1.5114 5.9353 2.2505 3.213-4.9885 7.4768-7.8447 4.6205zm-40.282-1.0986c-2.0865-1.3746-2.4764-5.0778-1.0435-9.9116 0.78631-2.6527 2.2047-7.523 3.152-10.823 2.0109-7.0053 3.8999-9.5 7.1931-9.5 3.4574 0 3.78 2.1708 1.3716 9.229-1.1769 3.4491-2.4137 9.1068-2.7483 12.573-0.54134 5.6064-0.91746 6.4614-3.4094 7.75-3.2294 1.67-3.057 1.6439-4.5155 0.6831zm56.36-2.91c-1.3616-0.37242-1.75-1.5596-1.75-5.3486 0-3.5589-0.48884-5.2218-1.8158-6.1767-2.248-1.6176-3.4215-4.542-2.1405-5.3337 1.92-1.1866 0.94814-3.473-1.4763-3.473-4.6124 0-4.6472-8.6975-0.0521-13.014 1.44-1.35 2.48-3.45 2.48-5 0-2.92 2.71-5.98 5.29-5.98 2.8716 0 4.0099 3.8407 3.3767 11.393-0.46973 5.603-0.26875 7.3932 0.98563 8.7792 1.0811 1.1946 1.6704 4.1875 1.8775 9.5344 0.16597 4.2863 0.62011 9.2558 1.0092 11.043 0.52925 2.4314 0.36111 3.2534-0.66756 3.2636-0.75625 0.008-2.275 0.18992-3.375 0.40534-1.1 0.21543-2.7875 0.17629-3.75-0.087zm-40.764-2.8491c-2.1189-2.5531-0.72287-25.209 1.6648-27.018 5.371-4.0691 6.3507-2.2094 6.6829 12.685 0.32226 14.446-3.2143 20.518-8.3477 14.333zm67.28-5.48c-1.0721-1.2521-2.9499-2-5.0216-2-4.1889 0-4.8768-1.7263-2.8764-7.2183 0.85779-2.3549 1.688-5.4067 1.8448-6.7817 0.22022-1.9303 0.94429-2.5752 3.1776-2.8302 2.8315-0.3232 2.8812-0.24687 2.3622 3.6226-0.62325 4.6467 0.64857 7.6166 2.23 5.2076 0.69776-1.0629 0.98915 0.46689 1 5.25 0.0167 7.3707-0.17934 7.7134-2.7167 4.75zm-525.86-8.75c-1.2935-5.6575-3.602-11.803-5.0244-13.376-4.9593-5.484-1.0118-13.69 4.2208-8.7747 5.5753 5.2377 9.5352 19.616 6.4322 23.355-2.0792 2.5052-4.9194 1.8976-5.6286-1.2043zm410.32-9.9436c-1.3414-2.3386-1.6401-8.6808-0.61027-12.957 0.64245-2.6674 1.2638-8.6748 1.3807-13.35 0.2799-11.191 3.6571-16.356 9.4858-14.506 2.3232 0.73734 2.0575 15.495-0.45908 25.506-0.76048 3.025-1.7516 7.75-2.2025 10.5-0.79223 4.8318-5.7723 7.9835-7.5946 4.8064zm98.281-13.79c-1.337-3.5167-1.2853-11.226 0.081-12.07 2.0892-1.2912 3.3968 1.6857 3.4048 7.7513 0.009 6.6874-1.7546 8.8721-3.4858 4.3187zm-177.01-5.86c0-3.75 1.01-5.66 3-5.66 2.3921 0 3.093 2.1805 1.6385 5.0979-1.7 3.4-4.64 3.75-4.64 0.56zm-309.46-19.83c-0.25-0.73-0.93-4.48-1.5-8.33-2.36-15.81-3.42-19.5-5.65-19.5-1.4477 0-1.8366-2.6805-0.78602-5.4182 3.4116-8.8906 8.2898 5.5914 10.717 31.817 0.20472 2.2117-2.1044 3.4018-2.783 1.4344zm492.42-9.0896c-5.4771-4.4321-7.2922-10.372-3.4633-11.333 5.6947-1.4293 11.187 3.6671 10.35 9.6036-0.40117 2.8456-4.2984 3.8241-6.8872 1.7293zm-115.65-0.52919c-3.8872-2.4717-4.873-21.309-1.2174-23.265 1.7305-0.92615 1.9837-1.7154 1.4547-4.5352-0.55424-2.9543-0.37307-3.4139 1.3458-3.4139 3.178 0 3.5156 1.6785 3.2128 15.974-0.3107 14.668-1.2085 17.521-4.7959 15.24zm33.602-1.8145c-0.977-1.1752-1.4144-4.3534-1.4144-10.277v-8.576l4.5-0.0233 4.5-0.0233-0.34163 6.5c-0.7149 13.602-0.68395 13.475-3.3599 13.801-1.4123 0.17187-3.0752-0.42786-3.8841-1.4008zm56.499-0.96835c-2.71-1.34-6.41-6.78-6.41-9.44 0-1 5.19-3.99 6.92-3.99 0.56319 0 1.7322 1.3695 2.5978 3.0434 0.86558 1.6738 2.6685 3.5421 4.0065 4.1518 3.2825 1.4956 4.2432 4.7672 1.9025 6.4787-2.3562 1.7229-5.1894 1.6468-9.018-0.24234zm-35.939-0.68079c-2.7649-1.5122-3.5262-2.9314-2.8166-5.2507 1.8049-5.8987 10.44-4.0079 8.9422 1.9582-0.81361 3.2417-3.5396 4.7069-6.1257 3.2925zm-39.239-0.79653c-6.94-2.76-5.28-20.95 1.92-20.95 4.6419 0 5.5154 1.4533 3.8702 6.4385-0.96173 2.9141-0.89126 3.9076 0.40884 5.7637 3.8781 5.5367-0.10939 11.171-6.1937 8.7519zm57.99-2.7c-4.3486-6.2295-3.5616-11.155 1.8992-11.887 3.2083-0.43024 3.4492-0.24435 4.6342 3.5761 2.957 9.5332-1.6179 15.353-6.5335 8.3114zm-90.35-11.91c-4.26-5.14-0.29-16.34 5.78-16.34 3.2646 0 4.9087 2.9156 2.4878 4.4118-0.47149 0.29139-1.1385 2.9054-1.4823 5.809-0.80744 6.82-3.9004 9.6092-6.788 6.1216zm-335.87-36.83c-3.48-9.16-0.7-49.51 3.41-49.51 3.3237 0 6.4441 47.009 3.3688 50.75-1.8163 2.2098-5.7402 1.4917-6.7789-1.2405zm148.55-12.76c-0.21416-0.6875-0.58923-1.925-0.83348-2.75-0.59264-2.0017 1.0239-5 2.6958-5 1.2076 0 2.5898 4.0697 2.5898 7.625 0 1.7176-3.9217 1.8277-4.4522 0.125zm-165.52-17.21c-3.3135-3.9925 0.21481-48.846 3.9352-50.027 7.5847-2.4073 9.3448 11.933 5.4283 44.227-0.78707 6.4901-6.0733 9.7644-9.3636 5.7998zm162.59-4.0706c-1.0873-2.8335-0.6868-5.1711 1.3032-7.6065 2.6392-3.2299 3.9974-1.4813 3.205 4.1261-0.65958 4.6678-3.2771 6.6886-4.5082 3.4804zm147.93-51.3c-1.0332-3.2553-0.84991-12.271 0.27228-13.393 2.7818-2.7818 6.1582 6.4579 4.6116 12.62-0.76474 3.047-3.9996 3.5589-4.8839 0.7728zm-151.56-0.17478c-1.752-1.0828-2.2417-12.162-0.98735-22.338 0.64456-5.2295 0.62901-8.4773-0.0466-9.7398-0.93087-1.7393 0.75682-6.0165 3.1229-7.9144 3.2339-2.594 1.5622-34.623-1.8517-35.48-2.4381-0.61193-2.4807-0.77862-1.7417-6.8238 0.4166-3.4081 0.91411-10.21 1.1056-15.115 0.38576-9.8822 0.87151-10.886 5.0389-10.409l2.87 0.32 0.04 32.5c0.0197 17.875 0.35866 33.022 0.75325 33.66 1.0824 1.7498-0.27101 4.3402-2.2677 4.3402-1.6215 0-4.0985 21.323-3.2526 28 0.10453 0.825 0.47126 3.1213 0.81495 5.103 0.66308 3.8232-0.92441 5.5406-3.5955 3.8897zm145.83-18.25c-0.0981-1.7875-0.13291-4.15-0.0774-5.25 0.0554-1.1 0.35431-7.7552 0.66413-14.789 1.0333-23.46 4.6902-22.573 5.2786 1.2798 0.21841 8.8553 0.8025 17.167 1.298 18.47 0.99524 2.6177-0.19415 3.5396-4.5668 3.5396-2.025 0-2.4472-0.52846-2.5965-3.25zm-8.1586-9.5c-1.4926-2.4606-0.0927-43.737 1.4937-44.042 2.7077-0.52115 3.0268 1.1811 3.3 17.605 0.39974 24.031-1.1313 32.475-4.7936 26.437zm-103.81-2.53c-2.63-4.92 0.37-25.72 3.71-25.72 3.1653 0 5.2168 19.812 2.5646 24.767-1.5933 2.9772-4.9211 3.4814-6.2754 0.95091zm-37.35-14.97c-0.63957-6.1002 0.7467-24.728 1.9899-26.74 3.3192-5.3706 4.5666 22.191 1.3913 30.74-1.4576 3.9245-2.7052 2.4487-3.3812-4zm131.42 5c-1.1093-18.224 1.1489-49.889 3.5761-50.145 1.4888-0.15681 2.707 12.608 2.2113 23.171-0.23942 5.1019-0.0462 9.5168 0.42942 9.8107 0.4756 0.29394 0.30848 1.5196-0.37139 2.7238-0.67987 1.2041-1.2791 3.0893-1.3317 4.1893-0.0525 1.1-0.17251 4.1375-0.26659 6.75-0.1613 4.4795-3.9952 7.639-4.2471 3.5zm-10.096-7.2285c-0.81532-1.7894-0.81438-5.1802 0.004-12.73 0.61316-5.6602 1.0603-18.616 0.99369-28.791-0.1229-18.766 0.65531-24 3.5682-24 1.5654 0 1.7049 58.461 0.15312 64.178-1.0035 3.6967-3.343 4.363-4.7186 1.3438zm-7.3-3.77c-0.22733-0.6875-0.63923-3.5-0.91533-6.25-1.1668-11.621-1.4302-12.223-5.3002-12.106l-3.5065 0.10585-0.57254-21c-1.0942-40.133-0.41937-57.5 2.2342-57.5 2.086 0 2.4483 3.3068 2.4653 22.501 0.0217 24.459 1.209 54.776 2.107 53.798 0.40349-0.43939 1.0114-13.373 1.3508-28.741 0.63925-28.941 1.2034-32.328 4.5689-27.426 1.1532 1.6796 1.392 5.2618 1.1495 17.244-0.43865 21.672-0.47688 29.366-0.22302 44.883 0.12381 7.5673-0.0506 14.205-0.38748 14.75-0.8527 1.3797-2.4756 1.2383-2.9707-0.25881zm-241.32-7.95c-2.3966-2.3966-1.5158-14.575 1.2546-17.345 4.9594-4.9594 8.3022-2.2102 6.6545 5.4727-0.59014 2.7517-0.80661 5.6972-0.48105 6.5456 1.4855 3.8712-4.5532 8.2019-7.428 5.3271zm-9.7032-16.179c-3.9633-2.898 1.0731-13.992 5.3202-11.719 2.4394 1.3056 2.7082 3.2929 1.0778 7.9698-1.3961 4.0049-3.9788 5.5184-6.398 3.7494zm40.624-24.975c-2.2018-2.6531-1.0064-43.707 1.351-46.396 5.4859-6.2585 6.7165-1.4774 6.0475 23.495-0.62311 23.26-2.4382 28.878-7.3985 22.901zm194.47-0.49146c-1.0644-1.7222-3.8839-32.969-3.7135-41.155 0.23901-11.486 0.0456-25.75-0.50851-37.509-0.59449-12.615-0.4859-14.153 1.0914-15.462 4.8469-4.0226 6.1868 11.682 5.3727 62.971-0.0535 3.3716 1.2291 22.72 1.6981 25.616 0.79059 4.8816-1.9582 8.7457-3.9401 5.5389zm-156.83-28.9c-2.5998-5.4705 2.2225-33.25 5.772-33.25 1.5439 0 3.3032 15.07 2.7161 23.266-0.52931 7.3885-6.4256 14.324-8.4881 9.9844zm41.877-56.75c-1.1907-3.1029 2.148-7.8779 5.1132-7.3128 2.1145 0.403 2.783 3.9453 1.276 6.7612-1.2832 2.3976-5.5398 2.7651-6.3892 0.55158zm41.789-1.2653c-3.6357-2.4895-4.7027-32.435-1.349-37.861 4.6664-7.5504 5.7453-3.9587 5.3686 17.872-0.35795 20.742-0.66799 22.284-4.0196 19.989zm-263.23-27.43c-1.8025-1.8025-1.449-2.7331 0.8686-2.2868 3.9017 0.7514 1.3529-1.9798-3.5446-3.7981-4.7649-1.7692-4.8283-1.7656-6.8288 0.38167-1.8309 1.9652-2.7163 2.1147-9.4902 1.6024-8.0011-0.60513-11.028-2.0774-7.8996-3.8421 0.99299-0.56014 2.2146-2.0946 2.7146-3.4098 0.55187-1.4515 2.0039-2.6226 3.6946-2.9797 1.532-0.32359 3.5668-1.0112 4.5218-1.5279 2.3176-1.2541 14.481-1.2059 15.264 0.0604 0.33992 0.55 1.3095 1 2.1546 1 3.2181 0 7.3454 4.0147 7.3454 7.145 0 4.9505-6.1525 10.302-8.8 7.655zm-39.7-8.5239c-1.1-0.27056-4.5739-1.5684-7.7199-2.884-3.146-1.32-6.676-2.4-7.845-2.4-3.2837 0-8.1887-3.92-7.621-6.0906 0.78747-3.0113-1.2868-3.7378-13.766-4.8216-6.541-0.56807-12.355-1.4952-12.92-2.0603-0.566-0.57-3.23-1.03-5.922-1.03-3.8549 0-4.9926-0.37862-5.3601-1.7838-0.38907-1.4878-1.7293-1.8215-8.0761-2.0107-9.442-0.29-16.187-4.31-16.27-9.71-0.05593-3.6523-1.6634-5.1708-3.9643-3.7448-1.7084 1.0588-2.319 0.9615-3.9022-0.62173-2.8352-2.83-2.6993-174.68 0.1422-179.88 2.0784-3.804 3.9537-4.1467 5.4719-1 1.9406 4.0223 2.0636 6.5106 0.85636 17.315-1.169 10.462-0.8707 17.477 1.3908 32.704 1.3951 9.3926 1.2559 12.758-0.67125 16.231-2.2914 4.1305-2.7418 25.874-1.0963 52.92l1.2728 20.92 3.75-5.6542c2.0625-3.1098 3.7683-5.9986 3.7906-6.4196 0.02235-0.42096 1.3724-2.3234 3-4.2276s2.9698-3.9292 2.9826-4.5c0.01276-0.57077 1.5802-2.7665 3.4832-4.8793s5.1351-6.6128 7.1825-10 4.3021-6.7502 5.0104-7.4735c0.70837-0.72329 3.3067-4.4358 5.7741-8.25 4.7802-7.3894 6.8766-8.4554 8.711-4.4295 0.99875 2.192 0.76618 2.9739-1.8591 6.25-1.6504 2.0595-3.5864 4.8696-4.3023 6.2446-1.4951 2.8716-8.0487 11.937-14.553 20.131-2.457 3.09-4.469 5.92-4.469 6.29 0 0.3696-1.9571 3.6856-4.349 7.3688-2.392 3.6832-5.5194 8.8098-6.9499 11.392-1.4305 2.5826-3.8266 6.5479-5.3247 8.8118-3.4244 5.1746-4.1982 17.171-1.1472 17.784 1.2831 0.25777 2.6098-1.4622 5.1429-6.6671 1.8776-3.858 4.362-8.3461 5.5209-9.9737 1.159-1.63 2.107-3.27 2.107-3.65 0-0.38019 0.84731-1.8857 1.8829-3.3456 1.036-1.46 2.899-4.45 4.14-6.65 4.891-8.67 5.793-10.16 8.83-14.65 1.731-2.55 3.147-5.05 3.147-5.56 0-0.50403 0.7875-1.8079 1.75-2.8975s2.5074-3.3119 3.433-4.9386c2.3063-4.0529 4.2645-5.1609 6.2332-3.5271 2.3733 1.9697 1.9741 3.7355-2.4162 10.687-2.2 3.4834-4 6.5943-4 6.9129 0 0.31866-1.7206 3.1422-3.8235 6.2745-4.067 6.0578-9.3183 14.798-12.788 21.284-1.1612 2.1709-2.8053 4.7264-3.6534 5.679-3.4133 3.8336-8.7779 17.284-7.6983 19.301 1.406 2.6272 2.3766 2.4283 3.9985-0.81912 0.75538-1.5125 2.1386-3.65 3.0738-4.75s2.5307-3.3938 3.5456-5.0973c1.014-1.7 5.669-8.61 10.344-15.35 4.675-6.7411 9.5989-14.122 10.942-16.403 5.3776-9.1301 10.868-16.158 12.855-16.457 3.183-0.4784 4.6573 3.0958 2.7024 6.5516-2.885 5.1-11.3 17.35-12.55 18.26-0.37569 0.275-2.2842 2.975-4.2411 6s-5.612 8.2-8.1224 11.5-4.5691 6.5625-4.5749 7.25c-0.005 0.69-0.46 1.25-1.01 1.25s-1 0.46934-1 1.043c0 0.57363-1.8 3.8131-4 7.1988-4.6354 7.1338-4.6772 7.3254-1.918 8.802 2.2011 1.178 4.8157-0.90324 4.8862-3.8895 0.01749-0.7401 0.87078-2.5401 1.8962-4s2.9406-4.6794 4.256-7.1544c2.2319-4.1994 15.544-23.892 16.9-25 0.33648-0.275 2.0636-2.6337 3.838-5.2416 5.066-7.45 10.142-7.75 10.142-0.61 0 3.1564-0.42361 4.1454-1.9462 4.5435-2.195 0.58-20.054 23.88-20.054 26.17 0 0.42186-0.85857 1.6886-1.9079 2.8149-3.9802 4.2723-8.1756 15.542-6.2329 16.742 1.7886 1.1054 4.791-0.7292 6.0921-3.7227 0.76269-1.7547 2.6606-4.7553 4.2177-6.6681 1.557-1.92 2.831-3.82 2.831-4.23 0-0.40958 2.7-4.7473 6-9.6394s6-9.4045 6-10.027c0-0.62299 0.39541-1.1327 0.87868-1.1327s1.3973-1.2521 2.0312-2.7824c2.3818-5.7501 7.3899-9.8073 10.59-8.5792 3.3092 1.2699 0.15659 7.4532-12.421 24.362-12.878 17.312-15.393 26-7.5257 26 3.0961 0 3.5332-0.44944 6.8124-7.0042 1.9272-3.8523 4.3754-8.2398 5.4404-9.75s2.8184-4.5458 3.8963-6.7458c5.9448-12.133 7.9422-14.681 11.212-14.301 3.8759 0.45055 3.2057 5.0196-1.9609 13.367-2.3603 3.8135-5.9968 10.383-8.0811 14.599s-4.2582 7.955-4.831 8.309c-2.0581 1.272-0.93247 2.109 6.0189 4.4756 6.1572 2.0962 7.1326 2.7648 7.625 5.2268 1.084 5.4202 12.539-2.0504 13.949-9.0965 0.72791-3.6396 4.99-7.0803 8.7704-7.0803 3.4236 0 3.3918 2.3235-0.11748 8.6024-1.4922 2.6699-2.9547 6.6512-3.25 8.8475-0.39307 2.9235-1.1887 4.3178-2.9701 5.2052-2.3126 1.152-2.2134 1.2277 2 1.5285 3.8874 0.27749 4.4693 0.62533 4.7264 2.8254 0.49396 4.2274-5.7111 6.8861-12.293 5.2672zm81.973-4.3201c-0.35487-0.57418 0.0789-2.1492 0.96404-3.5 1.9741-3.0129 6.5631-3.4401 6.5631-0.61101 0 3.5791-5.8734 6.7869-7.5272 4.111zm42.893-9.1735c-1.1034-1.7854-1.659-39.348-0.67722-45.782 0.9167-6.008 5.0136-8.6504 4.6514-3-0.94827 14.79-0.50222 21.963 1.5444 24.837 2.6704 3.7502 2.7171 6.8371 0.11587 7.6627-1.7917 0.56866-2 1.513-2 9.0674 0 8.3151-1.3268 10.949-3.6344 7.2151zm-36.849-5.6827c-0.67019-3.9668 0.84594-13.967 2.6303-17.35 1.3378-2.5359 3.87-2.1998 3.7669 0.5-0.60624 15.867-4.7288 26.725-6.3972 16.85zm-100.55-3.15c-1.1201-1.1201-1.8547-2.3576-1.6326-2.75 0.22212-0.39244 1.221-2.5135 2.2197-4.7135 0.99874-2.2 2.9709-5.8074 4.3826-8.0165s3.059-4.9091 3.6606-6c1.8948-3.436 7.364-6.5764 9.4805-5.4437 2.2185 1.1873 1.9322 2.1-3.4226 10.911-2.1892 3.6022-4.9989 8.8513-6.2439 11.665-1.903 4.3-3.859 6.39-5.99 6.39-0.23002 0-1.3346-0.91641-2.4547-2.0365zm104.64-18.03c-0.25776-0.78515-0.68051-9.9775-0.93945-20.428-0.25893-10.45-1.0288-22.671-1.7107-27.157-1.3591-8.9406-0.87491-12.352 1.4762-10.4 1.2619 1.0472 1.9521 4.1338 4.5081 20.159 2.3627 14.813-0.44219 46.635-3.3342 37.826zm152.38-9.4512c-1.2923-1.5572 0.28601-17.809 2.1818-22.466 2.0018-4.9172 3.6944 0.0583 3.336 9.8063-0.44674 12.151-2.3383 16.491-5.5179 12.66zm9.0374-2.6568c0.01-1.2758 0.44309-6.3637 0.96294-11.307 0.53103-5.0492 0.56655-9.3657 0.0811-9.8512-0.4855-0.4855-0.46926-2.2409 0.037-4.0064 0.49565-1.7282 0.90807-6.9702 0.91649-11.649 0.0167-9.2554 0.81425-11.67 3.5131-10.634 1.7986 0.69018 1.6574 18.697-0.32233 41.127-0.71284 8.0763-5.2441 13.595-5.1883 6.3196zm10.372-3.9792c-0.64-0.85-0.8-8.11-0.45-19.84 0.3069-10.175 0.27163-24.8-0.0784-32.5-0.59528-13.096-0.0802-17.5 2.0466-17.5 1.4223 0 3.7111 23.576 3.4463 35.5-0.54676 24.619-2.4402 37.709-4.9671 34.34zm28.541-5.017c-0.0899-0.41783-1.117-60.736-1.2946-76.023-0.12654-10.893 1.2809-17.436 2.7354-12.718 0.24027 0.77947 0.75332 2.3172 1.1401 3.4172 1.0405 2.9592 1.8871 60.685 1.1731 79.986-0.15083 4.0768-3.1179 8.2957-3.754 5.3377zm-19.261-17.512c0.48333-14.952 0.13527-22.256-2.3143-48.561-0.59237-6.3614-0.50942-6.75 1.441-6.75 5.8337 0 7.8197 70.695 2.0171 71.801-1.546 0.29473-1.6417-1.0854-1.1438-16.49zm7.8951-28.885c0.17917-41.21 0.19482-41.363 4.2264-41.411 3.0034-0.0356 0.17768 80.186-2.8447 80.76-1.3867 0.26363-1.5356-3.9762-1.3818-39.35zm181.1 35.84c-2.0003-3.2366-1.0823-27.777 1.0505-28.081 1.6419-0.23347 2.3716 0.31043 2.8215 2.103 2.9174 11.624-0.12555 32.039-3.872 25.978zm-160.04-10.53c-2.1028-10.588-3.4333-62.362-1.6864-65.626 3.4407-6.429 4.053-2.9382 4.0601 23.147 0.004 13.888 0.43952 28.4 0.96831 32.25 2.4708 17.989-0.18599 26.121-3.342 10.229zm23.677 4.34c-0.31871-1.2188-1.059-1.7182-2.0073-1.3543-3.5153 1.349-5.1731-36.916-1.7234-39.779 3.0414-2.5241 3.6892 0.45277 3.7825 17.381 0.066 11.974 0.40416 16.327 1.2432 16.005 1.2391-0.47549 2.1285 3.6919 1.5852 7.4278-0.40083 2.7564-2.191 2.9548-2.8802 0.3192zm-12.73 0.0568c-0.54132-0.87587-1.9052-18.505-3.1113-40.216-0.63415-11.415 0.81962-17.28 3.5262-14.224 0.94173 1.0631 3.4596 51.693 2.6727 53.744-0.65959 1.7188-2.236 2.0745-3.0876 0.69662zm141.09-1.5559c-0.82873-2.1596-1.0115-25.201-0.2102-26.497 1.1426-1.8488 3.4824-1.1712 4.0655 1.1773 2.3488 9.4598-1.1425 32.389-3.8553 25.32zm-25.27-0.98198c-0.29799-0.77655 0.15353-8.089 1.0034-16.25 0.84985-8.161 1.8546-23.092 2.2328-33.181 0.55679-14.853 0.97015-18.451 2.1726-18.912 1.9792-0.75949 4.1711 2.4004 4.2981 6.1962l0.10236 3.0589 0.78172-3.3008c2.691-11.362 6.2927-1.1777 5.4604 15.441-0.24273 4.8465-0.0747 6.1996 0.57258 4.6101 3.0805-7.5656 4.8836-2.7501 5.0548 13.5 0.0913 8.6625 0.2244 17.55 0.29587 19.75 0.10919 3.3606-0.20807 4.0482-1.9847 4.3018-2.63 0.38-3.39-2.72-3.39-13.87 0-8.889-1.8866-12.103-2.1972-3.743-0.10848 2.92-0.0788 7.2891 0.0659 9.7093 0.26993 4.5141-0.96957 6.382-3.5722 5.3832-1.147-0.44015-1.3024-4.8487-0.90436-25.657 0.36607-19.138 0.26292-22.743-0.43282-15.126-1.9396 21.234-5.2436 46.667-6.2682 48.25-1.0752 1.6614-2.6251 1.5852-3.2956-0.1619zm-513.84-17.49c-0.74238-1.2012 1.7488-7.5575 3.3497-8.547 0.61398-0.37946 1.9903-2.4031 3.0586-4.497 1.0682-2.0939 4.6887-7.5759 8.0454-12.182 3.3568-4.6063 8.6073-12.11 11.668-16.674 5.8567-8.7348 8.0029-9.8753 9.669-5.1379 0.93212 2.6505-7.4001 15.877-13.772 21.862-1.4197 1.3334-2.6028 2.9084-2.6292 3.5-0.25632 5.739-17.397 24.901-19.389 21.677zm171.54-10.48c-1.6592-1.9993-1.0258-8.1155 0.84056-8.1155 2.1528 0 3.5607 6.4314 1.7945 8.1977-1.2036 1.2036-1.5776 1.192-2.635-0.0822zm-1.5003-31.461c-0.28736-0.46496-0.80863-2.8275-1.1584-5.25-0.34974-2.4225-1.7628-7.6758-3.1401-11.674-3.8617-11.21-1.0971-17.173 3.4679-7.4807 2.471 5.2466 5.7829 21.38 4.8747 23.747-0.62177 1.6203-3.191 2.0383-4.0441 0.65802zm6.1152-23.344c-0.77795-1.2707-2.6216-4.4419-4.097-7.0472-1.4754-2.6052-4.9171-6.9713-7.6482-9.7024-6.2327-6.2327-6.4579-11.062-0.51558-11.06 5.6549 0.002 20.298 20.769 19.345 27.435-0.44439 3.1074-5.2557 3.362-7.0845 0.37492zm2.15-19.32c-1.1358-1.925-2.3873-3.5-2.7811-3.5-1.2062 0-3.9458-6.6096-3.2238-7.7778 2.9705-4.8064 7.6863-2.9604 11.611 4.5448 4.7394 9.0639-0.51036 15.369-5.6058 6.733zm499.65-15.829c-1.0731-2.4821 0.0416-17.628 1.3972-18.984 1.2996-1.2996 1.4278 10.5 0.18265 16.813-0.62371 3.1624-0.95451 3.6169-1.5798 2.1706zm-530.93-0.53608c-0.37198-0.60188-3.9193-0.9852-8.3645-0.90387-9.6174 0.17596-14.973-1.4841-16.384-5.0787l-1.041-2.652-0.91134 2.3758c-0.82637 2.1543-1.3673 2.332-5.8002 1.9061-2.6889-0.25837-5.5686-0.0894-6.3994 0.37556-1.4942 0.8362-12.358-1.4166-15.933-3.304-0.9625-0.50812-1.75-2.033-1.75-3.3887 0-1.8867-0.5277-2.467-2.25-2.474-1.2375-0.005-4.5-1.116-7.25-2.4687-5.5719-2.7409-7.8698-3.1437-7.2581-1.2721 0.22472 0.6875 2.7041 2.1746 5.5098 3.3047 13.695 5.5163 14.774 13.798 1.275 9.7911-10.64-3.15-19.729-12.05-19.953-19.53-0.045-1.48-0.531-2.97-1.081-3.31-0.55-0.33992-1-1.2665-1-2.059 0-2.8856 5.8666-1.6026 11.415 2.4965l5.33 3.9375 4.3773-2.1672c2.5194-1.2474 6.075-2.1182 8.3773-2.0516 7.5505 0.21824 13.005 0.25115 16.914 0.10205 3.022-0.11526 4.2464 0.35113 5.372 2.0462 1.2471 1.8782 2.3781 2.1955 7.8253 2.1955 6.4976 0 18.032 3.6601 20.355 6.4591 1.8827 2.2685 0.0946 4.5409-3.573 4.5409-1.8662 0-3.393 0.41968-3.393 0.93261 0 1.5681 3.5823 2.1767 6.433 1.0929 8.1682-3.1055 22.848 2.8364 18.284 7.4007-1.8753 1.8753-8.289 3.075-9.1336 1.7084zm87.739-5.8023c-6.97-1.44-3.48-5.33 4.78-5.33 2.1915 0 5.2837-0.67182 6.8716-1.4929 1.5878-0.82111 3.499-1.2581 4.247-0.97106 0.74798 0.28703 3.589-0.677 6.3133-2.1423 3.76-2.0223 6.3408-2.6568 10.712-2.6336 3.4182 0.0181 6.0601-0.45538 6.5-1.165 1.6901-2.7264 7.3624-5.7815 9.6624-5.2043 1.525 0.38275 3.2186-0.10638 4.8722-1.4071 1.3941-1.0966 5.4408-2.756 8.9927-3.6876 6.9886-1.833 6.2504-2.0093 13.33 3.1836 0.91897 0.67405 2.2495 0.44003 4.264-0.75 1.6106-0.95138 4.2088-1.7359 5.774-1.7434 3.84-0.02 7.35-1.03 7.35-2.11 0-0.48-1.36-0.88-3.03-0.88-4.0263 0-5.0795-2.682-2.0246-5.1558 5.0228-4.0672 13.184-1.4819 10.234 3.2419-0.77873 1.2469-0.80862 2.0243-0.0948 2.4655 1.6974 1.049 4.7815-2.515 5.111-5.9063 0.38647-3.9783 3.7005-4.7503 6.8541-1.5967 2.13 2.13 6.95 1.31 6.95-1.18 0-0.86-12.68-4.87-15.41-4.87-0.92947 0-2.681-1.0444-3.8922-2.321-3.79-4-15.7-7.55-15.7-4.68 0 1.5239-3.5223 1.1954-7.4945-0.69879-3.319-1.5827-3.7534-1.586-6.3577-0.0475-2.6765 1.5811-6.3488 1.4506-8.6477-0.30715-0.55-0.42054-3.925-1.7211-7.5-2.8901s-7.48-2.6186-8.6778-3.2213c-1.1978-0.60272-3.3353-0.87459-4.75-0.60416-1.74 0.33-2.57 0.05-2.57-0.87 0-0.75-0.5-1.36-1.11-1.36-0.60884 0-0.8506 0.66814-0.53724 1.4848 0.78139 2.0363-2.6698 3.7073-6.0852 2.9465-6.02-1.34-6.27-1.52-6.27-4.5 0-3.1678-0.83909-3.6504-2.925-1.6826-1.06 1-1.4167 1-1.7833 0-0.25209-0.6875-1.0958-1.25-1.875-1.25-1.7511 0-1.8631-1.6245-0.16667-2.4182 0.6875-0.32167-0.34686-0.35578-2.2986-0.0758-2.2759 0.32646-4.2485-0.0202-5.5-0.96669-1.0733-0.81165-2.3536-1.49-2.8452-1.5075-0.49159-0.0175 1.1689 1.5432 3.69 3.4682s5.4358 3.5 6.4771 3.5 2.1775 0.28417 2.5248 0.63148c0.97901 0.97902-1.1954 4.3685-2.8024 4.3685-0.78865 0-4.8803 1.125-9.0925 2.5-8.0604 2.6312-16.179 3.2256-19.534 1.4303-3.42-1.83-0.44-3.93 5.57-3.93 2.8578 0 7.6402-0.71586 10.628-1.5908 5.9278-1.7362 8.5615-3.4092 5.3667-3.4092-1.0806 0-3.644-0.9-5.6964-2-4.7922-2.5685-6.8075-2.5197-10.333 0.25-2.451 1.9254-4.0934 2.2547-11.385 2.2825-5.1299 0.0196-9.8004 0.59913-11.737 1.4564-3.0071 1.3314-3.3784 1.2712-5.7192-0.9279-2.7878-2.619-2.4277-4.5199 0.70115-3.7017 1.1222 0.29346 3.2991-0.11734 4.8375-0.91288 1.76-0.91 5.78-1.45 10.85-1.45 4.43 0 8.05-0.42 8.05-0.93 0-0.51294 0.9-1.2183 2-1.5674 1.1-0.34913 2-0.9982 2-1.4424 0-1.2821-6.2676-2.19-7.3875-1.0701-0.55688 0.55687-2.2782 1.0125-3.8252 1.0125s-6.0695 0.93281-10.05 2.0729-11.962 2.4523-17.737 2.916c-9.1062 0.73117-18.198 2.1605-29.5 4.6379-1.65 0.36167-4.125 1.4229-5.5 2.3583-1.375 0.93542-3.9625 2.3313-5.75 3.1019-1.7875 0.77064-3.25 1.6925-3.25 2.0485 0 3.3614-14.058 4.1396-18.829 1.0425-2.1747-1.4116-2.4734-1.3412-4.5 1.0608-5.5018 6.5208-23.671 6.2706-23.671-0.32609 0-3.0844 4.373-4.2589 19.758-5.3066 1.7918-0.12201 3.8168-0.78676 4.5-1.4772 1.6328-1.6501-9.8182-0.96981-13.083 0.77725-1.2191 0.65246-2.6389 0.92532-3.155 0.60635-1.3501-0.8344-11.108 2.5363-10.446 3.6082 1.1387 1.8425-0.74598 4.703-3.8579 5.8551-1.7692 0.65503-3.9981 1.6034-4.9532 2.1075-2.7582 1.4559-4.3952 1.0974-7.7047-1.6873-2.4129-2.0304-3.6964-2.4482-5.8267-1.8972-5.68 1.47-15.23 1.45-15.23-0.04 0-2.2376 3.5881-3.5503 11.301-4.1345 4.6232-0.35018 12.566-2.2738 22.199-5.3762 13.762-4.4322 16.073-4.8815 28-5.4436 21.479-1.0122 36.087-3.4674 40.25-6.7648 0.82779-0.6557 1.6722-0.64494 2.5 0.0318 1.4558 1.1902 11.221-0.0935 13.199-1.7351 0.69536-0.5771 2.6662-0.76887 4.3798-0.42617 10.346 2.0692 18.932-1.8798 17.327-7.9694-0.57994-2.1999 1.1493-4.6464 3.2842-4.6464 2.4318 0 3.8126-5.2386 3.6901-14-0.16248-11.618 0.10309-17.58 0.82303-18.478 1.01-1.25-0.89-13.52-2.09-13.52-0.47 0-0.86-0.68-0.86-1.5 0-0.825 0.37351-1.5 0.83003-1.5 0.68545 0 1.0806-4.9834 1.11-14 0.0259-7.9295-3.1037-27.891-4.5627-29.102-1.2368-1.0265-1.2358-1.3999 0.007-2.7916 1.6449-1.8413 2.0063-13.881 1.0988-36.607-1.3091-32.782-0.51836-48.909 2.8438-58l1.4793-4 6.8467-0.26351c3.76-0.144 7.74-0.672 8.84-1.172 1.1-0.49974 5.8308-1.1392 10.513-1.4211 4.6821-0.28185 9.685-0.95811 11.118-1.5028 1.9103-0.72631 3.3361-0.61098 5.3475 0.43255 2.4538 1.273 3.2184 1.2125 7.2594-0.57505 2.48-1.099 5.13-1.998 5.89-1.998 0.75 0 1.37-0.42 1.37-0.933 0-2.293 7.2213-2.9206 9.75-0.84737 0.82387 0.67549 1.6761 0.68923 2.5 0.04031 3.1105-2.45 15.6-1.9298 17.237 0.7179 1.95 3.166-0.82 7.022-5.06 7.022-2.3738 0-4.5941 0.45-4.934 1-0.38868 0.6289 1.9088 1.004 6.191 1.0108 3.745 0.006 9.018 0.68095 11.718 1.5 2.6999 0.81905 6.9749 1.4999 9.5 1.513 2.5251 0.01312 6.3911 0.49877 8.5911 1.0792 2.2 0.58046 8.5 1.3572 14 1.7261 9.1097 0.61106 10 0.84882 10 2.6708 0 2.4727-15.247 2.8382-27 0.6472-3.85-0.7177-9.025-1.5144-11.5-1.7704s-5.175-0.73387-6-1.0619c-0.825-0.32805-5.55-0.68949-10.5-0.80319-6.399-0.14698-7.9644 0.02369-5.4164 0.59058 4.0356 0.89788 11.877 5.6885 11.991 7.3253 0.5149 7.4305 2.6643 9.5443 7.406 7.2831 3.55-1.69 4.71-3.71 2.13-3.71-2.6993 0-6.2417-3.7249-4.8695-5.1203 0.99932-1.0162 2.2664-0.99918 6.5 0.08737 2.8923 0.7423 7.9202 1.3909 11.173 1.4413 6.4087 0.09931 8.7699 2.0292 3.9067 3.193-1.5516 0.37133-3.1598 0.86523-3.5737 1.0976-1.13 0.632 1.12 4.301 2.63 4.301 1.3 0 4.62 3.082 4.62 4.293 0 4.2638-11.169 6.257-13.858 2.4729-1.2032-1.6937-2.2839-1.8531-9.5-1.4005-4.4783 0.28083-9.0336 0.55872-10.123 0.61754-1.0894 0.05881-2.489-0.58821-3.1102-1.4378-1.4038-1.9197-3.8147-2.0442-3.0915-0.15957 1.5346 3.9991-6.6099 8.4475-12.517 6.8367-1.8152-0.49498-4.9307-0.70484-6.9232-0.46636-5.2792 0.63185-17.179-10.296-15.04-13.811 2.4159-3.9693-1.0376-6.0995-4.257-2.6257-2.9574 3.1911-1.962 3.1056-8.2654 0.70978-2.8517-1.0839-8.7821-2.2707-13.179-2.6373l-7.994-0.66667-0.72739 3.8878c-0.40007 2.1383-1.3226 4.3378-2.0501 4.8878-1.4718 1.1127-1.8291 5.529-0.79269 9.7978 0.48901 2.0142 0.22215 3.1345-0.95287 4-1.3384 0.98585-1.451 1.8308-0.62572 4.6956 1.4778 5.1296 1.2371 9.3779-0.84104 14.847-1.5621 4.1112-1.6308 5.0009-0.44456 5.7607 3.2936 2.1098 4.1589 13.093 1.292 16.399-2.3882 2.7536-2.5191 4.3243-0.5 6 0.825 0.68469 1.5 1.9255 1.5 2.7573 0 0.96669 0.78354 0.5163 2.1715-1.2482 1.949-2.4778 2.2943-2.5926 3.3706-1.1208 1.3359 1.8269 3.0114 0.0331 9.0097-9.6455 3.0664-4.9479 6.1331-6.8708 7.4806-4.6905 1.085 1.7556 0.21104 3.7243-3.9723 8.9477-3.3419 4.1728-7.2411 11.501-14.973 28.143-4.659 10.027-4.2845 15.702 0.45245 6.857 5.3395-9.9702 20.975-32.46 22.82-32.823 3.5375-0.69698 0.11961 6.9086-8.2196 18.29-4.057 5.5372-3.9276 5.3174-10.91 18.533-3.6289 6.8684-5.6065 9.5891-7.1392 9.8215-1.166 0.17683-1.8617 0.73933-1.5461 1.25 0.31561 0.51068-0.0152 0.95703-0.73517 0.9919-0.71996 0.0349-0.26761 0.48105 1.0052 0.99154 1.2728 0.51048 2.053 1.3509 1.7337 1.8675-0.3193 0.51665-0.17781 1.1883 0.31443 1.4925 1.4738 0.91083 7.3196-7.459 13.113-18.775 6.6812-13.05 9.3618-16.643 11.126-14.913 0.99975 0.98006 0.91432 1.5984-0.42536 3.0787-0.922 1.0188-1.6773 2.4919-1.6785 3.2736-0.001 0.78169-1.8562 5.0213-4.1223 9.4213s-4.6762 9.8-5.3559 12c-1.1006 3.5628-6.3865 12.477-9.7704 16.477-1.4814 1.7511-1.7508 7.1903-0.33264 6.7176 0.54136-0.18045 3.8425-5.8698 7.3359-12.643 9.5334-18.484 14.845-26.003 18.39-26.036 4.0384-0.0376 3.1541 2.6656-6.5377 19.985-2.0006 3.575-5.1673 9.5582-7.0371 13.296-1.8699 3.7378-3.8228 7.3378-4.34 8-4.1846 5.3583-7.5214 13.659-7.7451 19.267-0.13306 3.3345-0.54558 7.4453-0.91673 9.1352-0.56957 2.5932-0.14371 3.6522 2.7303 6.7893 4.0444 4.4147 6.8329 4.4172 7.7387 0.007 0.56411-2.7468 2.1281-5.8813 7.7309-15.494 1.122-1.925 2.3361-4.9249 2.698-6.6665 0.36191-1.7416 1.2029-3.3756 1.8689-3.6311 0.66602-0.25557 3.1721-3.7807 5.5691-7.8335 8.0775-13.658 12.303-17.736 15.005-14.481 1.4418 1.7373 0.31823 4.4721-5.7981 14.112-2.4428 3.85-6.2261 10.375-8.4074 14.5s-4.8065 8.6945-5.8338 10.154c-1.03 1.43-1.87 3.16-1.87 3.82 0 0.65519-0.88879 2.4394-1.9751 3.965-4.0717 5.7181-4.2724 7.7716-0.80957 8.2799 3.4668 0.50883 6.7847-1.9832 6.7847-5.096 0-1.0181 1.1812-4.0556 2.6248-6.75 1.4437-2.6944 4.6337-8.8352 7.0889-13.646 4.2398-8.3078 8.4188-13.208 10.634-12.47 2.8081 0.93603 2.9689 3.5891 0.50703 8.3631-1.3768 2.6699-4.621 8.9935-7.2093 14.052-2.9744 5.8137-6.134 10.42-8.5873 12.52-4.4271 3.7894-6.555 10.27-3.7282 11.355 3.3746 1.2949 9.4628-5.7963 15.706-18.294 4.9489-9.9062 8.9684-14.559 12.184-14.103 2.9831 0.42324 2.6556 4.8597-0.72526 9.8235-2.5646 3.7653-10.818 21.01-10.302 21.526 3.6799 3.6799 8.0956-0.1398 13.013-11.257 1.0386-2.3478 2.2647-4.2688 2.7248-4.2688 0.46012 0 1.0943-0.7875 1.4093-1.75 1.6647-5.0867 11.429-19.25 13.271-19.25 2.4372 0 2.4054 1.8878-0.094 5.5708-1.3841 2.0396-2.5165 4.1269-2.5165 4.6386 0 0.51165-1.35 2.8924-3 5.2906s-3 4.6173-3 4.9313c0 0.64742-9.3796 15.426-10.965 17.276-1.8049 2.1068-1.1266 3.2922 1.8837 3.2922 3.1335 0 3.696-0.70009 10.043-12.5 8.0353-14.939 11.976-20.122 14.546-19.135 1.6533 0.63443 1.5442 0.99864-1.1734 3.9175-1.6479 1.7699-4.9011 7.043-7.2293 11.718s-5.153 9.9751-6.2774 11.778l-2.0443 3.278 2.6235 2.6235c1.443 1.443 2.7387 2.4429 2.8795 2.222 0.14078-0.22084 1.3243-2.4265 2.6301-4.9015s3.1168-5.4 4.0244-6.5c0.90765-1.1 2.3048-3.3061 3.1047-4.9025 2.018-4.0271 8.6006-11.248 9.4748-10.394 1.0086 0.9857-0.22775 5.3611-2.0219 7.1552-0.82418 0.82418-1.4985 1.8327-1.4985 2.2412 0 0.40848-0.74755 1.5687-1.6612 2.5783-2.9685 3.2802-7.9328 12.561-7.1419 13.352 2.7084 2.7084 7.4452 1.5006 10.54-2.6877 6.2575-8.468 11.038-13.143 12.764-12.481 1.8993 0.72884 0.48135 3.164-7.1292 12.244l-4.2795 5.1055 4.1316 1.2379c2.2724 0.68082 5.0641 1.8212 6.2039 2.5341 1.1398 0.71294 5.4108 1.6056 9.4911 1.9838 4.0803 0.37814 9.7053 1.4821 12.5 2.4533 9.4253 3.2754 12.06 3.9194 18.581 4.542 3.575 0.34135 8.1312 0.85704 10.125 1.146l3.625 0.52537 0.43275-5.9828c0.37548-5.191 0.92139-6.5236 4.125-10.07 4.3995-4.8697 4.3333-4.4058 1.0619-7.4392-2.2846-2.1184-2.5371-2.9361-1.9208-6.2213 0.5062-2.6983 0.95701-3.3819 1.5729-2.3854 1.537 2.4869 2.8595-3.253 2.2636-9.8246-0.70783-7.806 4.6315-13.812 6.1875-6.9607 2.0412 8.9884 2.4829 11.839 2.518 16.25 0.0219 2.75 0.37036 4.4811 0.77444 3.8469 0.7422-1.1649 0.1487-13.695-1.2877-27.186l-0.78143-7.3395 2.4019 0.33946c4.6843 0.66203 6.144 14.181 3.8696 35.839-1.3111 12.485-1.6019 13.309-4.4479 12.594-2.7855-0.69912-3.2767 0.76621-2.7234 8.1242l0.39239 5.2185 4.6556 1.3092c9.4 2.65 5.96 13.76-4.27 13.76-4.3617 0-10.32 1.7728-12.581 3.7435-0.275 0.23966 0.80245 1.4766 2.3943 2.7488 3.64 2.91 2.97 5.51-1.42 5.51-3.79 0-6.97-1.59-6.97-3.48 0-2.4474-1.6486-2.5668-6.403-0.4637-4.2948 1.8998-5.0099 1.9446-10.149 0.63567-5.4219-1.3809-9.4477 0.42866-9.4477 4.2466 0 3.1006-14.71 5.9491-18.362 3.5558l-2.64-1.72v3.002c0 1.7304-1.3833 5.0619-3.2657 7.865l-3.2657 4.863-5.9843 0.0452c-3.2914 0.0249-6.8105 0.42535-7.8202 0.88993-1.0556 0.48567-4.0307 0.37869-7-0.25171-4.3477-0.92304-9.2396-1.186-24.414-1.3123-6.172-0.0514-13.902 0.5677-14.75 1.1813-1.333 0.96462-10.438 1.8488-13.177 1.2798zm61.67-8.83c1.375-0.78602 3.4967-1.4451 4.7148-1.4646 2.3141-0.037 4.8128-3.3726 3.7793-5.045-0.36295-0.58727-1.4632-0.41152-2.7962 0.44669-1.2088 0.7782-3.8542 1.7174-5.8786 2.0872-3.5467 0.64779-5.4351 2.6702-4.2635 4.5659 0.74585 1.2068 1.4685 1.1108 4.4442-0.59024zm-35-248.07c0-2.0201-2.6579-4.7137-5.9517-6.0316-2.1181-0.84751-4.0784-2.4098-4.3561-3.4718-0.33-1.282-1.37-1.931-3.1-1.931-4.907 0-3.0333 2.6178 4.6015 6.4287 3.1323 1.5635 5.9307 3.4567 6.2186 4.207 0.51 1.314 2.59 1.957 2.59 0.798zm6.42-9.184c0.41168-0.4125 2.3992-1.2653 4.4167-1.8951l3.66-1.145-4.25-0.105c-4.5188-0.11148-5.4406-1.4805-2.5-3.7128 3.0487-2.3143-5.1175-1.7087-9.4696 0.70219-5.6723 3.1423-6.0312 3.8056-2.4471 4.5224 1.7646 0.35291 3.4505 1.0335 3.7465 1.5125 0.65875 1.0659 5.8014 1.1568 6.8354 0.12084zm-272.97 249.34c-1.8753-1.3713-1.8349-1.533 1.3137-5.25 1.7868-2.1093 5.0632-6.4226 7.2811-9.5852 3.8696-5.5178 7.2446-7.3897 8.1932-4.5442 0.27957 0.83871 1.5695 0.51692 4.2371-1.057 3.5774-2.1108 15.283-5.0221 21.944-5.458 6.8019-0.44504 4.9917 7.8265-1.9166 8.7574-2.2 0.29645-5.575 0.91456-7.5 1.3736l-3.5 0.83456 3 0.63404c1.65 0.34872 5.8047 1.158 9.2327 1.7985 3.428 0.64046 6.725 1.7577 7.3268 2.4827 1.4961 1.8026 0.74789 6.0062-1.0007 5.6225-0.76656-0.16821-5.7059-0.87966-10.976-1.581-5.5902-0.7439-11.587-2.2367-14.394-3.583-3.5985-1.7262-5.0982-2.0208-5.95-1.169-0.626 0.62-1.909 1.13-2.851 1.13-0.94242 0-3.086 1.9125-4.7635 4.25-5.456 7.6027-6.0938 7.9543-9.6757 5.3352zm360.9-34.11c-0.32143-0.83763-0.0309-3.4251 0.64557-5.75 2.6326-9.0474 2.0471-19.199-1.36-23.578-1.2252-1.5748-1.5013-28.203-0.33657-32.465 2.0139-7.37 4.1901-2.7124 4.3616 9.3348 0.19625 13.788 0.61635 17.684 2.7261 25.28 1.9832 7.141 2.0278 12.959 0.13932 18.201-0.79258 2.2-1.4608 5.4625-1.485 7.25-0.0477 3.5289-3.5104 4.8037-4.6911 1.727zm34.18-10.73c-1.2635-20.382-1.2399-21.168 0.64768-21.54 3.7448-0.73698 6.3146 18.38 3.851 28.65-2.1339 8.8952-3.6556 6.4902-4.4987-7.11zm197.67-7.95c-2.7991-2.7991-1.4595-6.8 2.277-6.8 2.6053 0 3.8876-0.62676 5.115-2.5 0.90093-1.375 2.508-2.5 3.5714-2.5 1.0633 0 3.7961-0.9 6.0728-2 5.9102-2.8555 10.296-2.6433 12.422 0.60099 2.1734 3.317 0.93364 5.5217-3.8784 6.8972-1.9275 0.55097-4.7315 2.4643-6.231 4.2518-2.9735 3.5444-16.429 4.97-19.349 2.05zm-370.5-22.44c-1.8992-1.8992 2.3457-14.848 7.3315-22.364 0.91206-1.375 4.2518-7.1533 7.4216-12.841 10.767-19.318 15.196-24.732 18.54-22.665 1.8755 1.1592 1.0246 4.7745-2.3305 9.902-1.8367 2.8069-4.4242 7.1216-5.75 9.5881s-3.4336 6.0323-4.684 7.924-5.191 9.4361-8.7569 16.765c-3.57 7.33-6.89 13.33-7.4 13.33-0.50123 0-1.5341 0.23899-2.2954 0.5311-0.76121 0.2921-1.698 0.2171-2.0818-0.16667zm148.94-6.638c-2.5485-1.8635-4.0432-14.077-2.761-22.562 3.2478-21.491 3.9425-65.406 1.2287-77.665-0.60879-2.75-1.4004-7.6509-1.7592-10.891l-0.65234-5.8909 5.2178-4.8225 5.2179-4.8225-0.65276-6.3964c-0.5555-5.4433-0.40291-6.4923 1.024-7.0398 2.3604-0.90576 3.4963 0.07068 3.4963 3.0054 0 3.0132 2.0404 2.7457 3.4871-0.45704 0.54-1.194 1.52-2.177 2.17-2.177 0.65001 0 2.5654-0.7875 4.2566-1.75 3.04-1.733 4.01-3.25 2.08-3.25-0.55 0-1-0.62622-1-1.3916 0-1.9325 5.0684-3.0988 6.1551-1.4164 0.57899 0.89637 1.0809 0.97117 1.5949 0.23768 0.4125-0.58867 2.55-1.803 4.75-2.6985l4-1.6282-3.5833-0.05153c-6.8165-0.09802-6.1462-4.366 0.92994-5.921 15.504-3.4071 24.189-1.7958 25.628 4.7546 0.86879 3.9556 0.38965 4.4872-4.2189 4.6814-2.3343 0.09836-4.8093 0.64359-5.5 1.2116-0.69071 0.56802-3.9558 1.8079-7.2558 2.7552-3.3 0.94736-8.3382 3.0149-11.196 4.5945-2.86 1.581-6.16 2.873-7.34 2.873-1.9015 0-2.0481 0.35347-1.3482 3.25 1.1099 4.5928 0.4587 15.963-1.0166 17.75-2.3078 2.7961-3.4713 11.456-3.1574 23.5 0.34054 13.064-0.50713 22.222-2.7769 30-1.6732 5.734-1.0832 6.9856 2.6277 5.5748 3.411-1.2969 6.2577 1.1301 5.0722 4.3243-1.695 4.5667-0.88516 14.931 1.5439 19.759 2.8269 5.6191 2.2942 9.499-1.4324 10.434-3.36 0.85-5.48-0.12-5.48-2.5 0-1.0866-1.158-3.2382-2.5734-4.7814l-2.5734-2.8058 0.53104 2.5053c3.0258 14.275-0.73988 23.767-7.0698 17.82l-2.32-2.18v3.3599c0 1.9752 0.81813 4.2307 1.9852 5.473 3.8533 4.1016-2.6027 8.7096-7.3446 5.2422zm11.92-65.47c0.33142-1.5125 0.77053-3.2986 0.9758-3.9691 0.20527-0.67048-0.27954-2.4705-1.0774-4-0.79783-1.5295-1.4602-4.8059-1.4721-7.2809-0.0156-3.2755-0.28525-4.0918-0.99085-3-1.8239 2.8223-0.86156 21 1.1118 21 0.46756 0 1.1213-1.2375 1.4527-2.75zm-0.97-47.5c0.90999-2.8172 1.1364-18.75 0.26641-18.75-1.3219 0.000391-2.3427 5.7523-2.3504 13.244-0.008 7.766 0.72687 9.7076 2.084 5.506zm-19.898 73.896c-0.9589-2.4989 0.12111-36.433 1.2252-38.496 0.59-1.11 1.08-3.37 1.08-5.02 0-3.74 1.61-8.13 2.98-8.13 0.64671 0 0.83714 1.9648 0.50885 5.25-0.28856 2.8875-0.69547 13.575-0.90426 23.75-0.4106 20.011-2.3902 29.171-4.8941 22.646zm4.31-85.109c-1.375-0.75858-4.2132-3.4445-6.3072-5.9688-2.0939-2.5243-5.6939-5.5505-8-6.725s-5.5428-3.1569-7.1928-4.4054c-2.4439-1.8492-3.8507-2.1724-7.5894-1.7438-4.122 0.47256-4.8094 0.24642-6.75-2.2207-3.44-4.379-1.78-8.477 3.45-8.477 1.3551 0 3.4604-0.65162 4.6786-1.4481 2.7774-1.8159 10.94-2.0548 25.715-0.75282 6.8773 0.60605 11.882 0.64912 12.45 0.10714 1.3196-1.2589 2.1756-1.1378 3.8594 0.54602 1.2006 1.2006 2.6197 1.2705 8.1892 0.40346 13.386-2.084 12.465 3.1744-1.0575 6.0358-7.8637 1.6641-8.6399 2.0132-6.4411 2.8972l2.5 1.0052-2.8716 1.1245c-2.1383 0.83733-3.2236 0.83236-4.25-0.01946-1.7-1.409-1.81-3.9-0.18-3.9 0.74482 0 0.83965-0.33536 0.25-0.88412-1.304-1.2136-29.858-2.124-28.648-0.91346 0.51391 0.51391 3.3911 1.2678 6.3937 1.6752 6.7383 0.91441 10.727 3.6611 15.282 10.524 6.96 10.481 5.01 17.824-3.48 13.139zm81.29-12.541c-0.3357-1.2837-1.364-2-2.8712-2-3.15 0-4.42-2.726-4.42-9.449 0-12.445 13.068-12.386 13.923 0.06302 0.0432 0.62916 1.7087 1.0644 3.8265 1 3.6038-0.10962 3.7617 0.02553 4.0502 3.4652 0.53 6.334-12.98 12.778-14.51 6.921zm-72.79-41.992c-8.3351-2.3556-9-2.694-9-4.5804 0-2.0913-0.69466-2.0485 13.192-0.81256 7.1206 0.63372 9.5602 2.1055 6.9985 4.2219-1.8076 1.4934-7.8227 2.1228-11.191 1.171z"/>
</svg>
